<svg xmlns="http://www.w3.org/2000/svg" xmlns:xlink="http://www.w3.org/1999/xlink" width="20" height="26" viewBox="0 0 20 26"><defs><path id="ccb2a" d="M1162 575.7v15.55c0 .96-.77 1.74-1.7 1.74h-16.81a1.4 1.4 0 0 1-1.48-1.47l-.01-22.8c0-.94.79-1.71 1.76-1.71h7.96c.75 0 1.75.35 2.32.81l6.91 5.63c.6.49 1.05 1.46 1.05 2.26zm-5.48 7.91c-.09-.16-.27-.25-.49-.25h-2.32v-5.58a.7.7 0 0 0-.68-.67H1151a.68.68 0 0 0-.66.67v5.58h-2.35c-.21 0-.4.09-.48.25-.09.17-.07.37.06.54l3.97 5.62c.12.16.29.26.47.26.19 0 .36-.1.47-.26l3.98-5.62c.12-.17.14-.37.06-.54zm3.9-8.39l-7.59-5.96v4.77c0 .28.09 1.19 1.17 1.19z"/></defs><g><g transform="translate(-1142 -567)"><use  xlink:href="#ccb2a"/></g></g></svg>