<svg xmlns="http://www.w3.org/2000/svg" xmlns:xlink="http://www.w3.org/1999/xlink" width="1203" height="41" viewBox="0 0 1203 41"><defs><path id="dulsa" d="M45 766.14h1100.6s107.96-.38 180.85-23.47C1399.33 719.58 1436 694 1436 694v22.6s-10.2 179.45-73 196.4c-62.8 16.95-152.8-2.74-215.66-2.74H45z"/><path id="dulsb" d="M26.6 940V674h1427.8v266zm26.8-19.74h1102.34c62.85 0 152.87 19.7 215.66 2.74 62.8-16.95 73-196.4 73-196.4V704s-36.67 25.58-109.55 48.67c-72.89 23.09-180.85 23.47-180.85 23.47H53.4z"/><filter id="dulsc" width="200%" height="200%" x="-50%" y="-50%"><feGaussianBlur in="SourceGraphic" result="FeGaussianBlur1018Out" stdDeviation="5 5"/></filter><mask id="dulsd"><use fill="#fff" xlink:href="#dulsa"/></mask></defs><g><g clip-path="url(#clip-1185)" opacity=".29" transform="translate(-105 -748)"><use fill="#f8f8f8" xlink:href="#dulsa"/><use fill-opacity=".05" stroke="#000" stroke-opacity=".05" stroke-width="0" filter="url(#dulsc)" mask="url(&quot;#dulsd&quot;)" xlink:href="#dulsb"/></g></g></svg>