<svg xmlns="http://www.w3.org/2000/svg" xmlns:xlink="http://www.w3.org/1999/xlink" width="608" height="67" viewBox="0 0 608 67"><defs><path id="nysqa" d="M631 459.14h435.6s107.96-.38 180.85-23.47C1320.33 412.58 1357 387 1357 387v22.6s-10.2 68.45-73 85.4c-62.8 16.95-152.8-2.74-215.66-2.74H631z"/><path id="nysqb" d="M612.6 522V367h762.8v155zm26.8-19.74h437.34c62.85 0 152.87 19.7 215.66 2.74 62.8-16.95 73-85.4 73-85.4V397s-36.67 25.58-109.55 48.67c-72.89 23.09-180.85 23.47-180.85 23.47H639.4z"/><filter id="nysqc" width="200%" height="200%" x="-50%" y="-50%"><feGaussianBlur in="SourceGraphic" result="FeGaussianBlur1018Out" stdDeviation="5 5"/></filter><mask id="nysqd"><use fill="#fff" xlink:href="#nysqa"/></mask></defs><g><g clip-path="url(#clip-1258)" opacity=".73" transform="translate(-711 -407)"><use fill="#eaeaea" xlink:href="#nysqa"/><use fill-opacity=".05" stroke="#000" stroke-opacity=".05" stroke-width="0" filter="url(#nysqc)" mask="url(&quot;#nysqd&quot;)" xlink:href="#nysqb"/></g></g></svg>