<svg xmlns="http://www.w3.org/2000/svg" xmlns:xlink="http://www.w3.org/1999/xlink" width="1560" height="578" viewBox="0 0 1560 578"><defs><path id="d1yga" d="M-449.86 2719.12l122.43-62.24L-403 2508.2l16.04-8.15 75.57 148.67 8.75-4.45-71.14-139.93 16.03-8.15 71.14 139.93 10.2-5.19-75.57-148.66 16.03-8.15 75.58 148.66 8.74-4.44-71.14-139.94 16.04-8.15 71.13 139.94 53.93-27.42-75.58-148.67 16.04-8.15 75.57 148.67 8.75-4.44-71.14-139.94 16.03-8.15 71.14 139.94 10.2-5.2-75.57-148.66 16.03-8.15 75.58 148.67 8.74-4.45-71.14-139.93 16.04-8.15 71.14 139.93 53.92-27.41-75.57-148.67 16.03-8.15 75.58 148.67 8.74-4.45-71.14-139.93 16.04-8.15 71.13 139.93 10.2-5.19-75.57-148.66 16.03-8.15 75.58 148.66 8.74-4.44-71.13-139.94 16.03-8.15 71.14 139.94 52.47-26.68-75.58-148.67 16.03-8.15 75.58 148.67 8.74-4.44-71.13-139.94 16.03-8.15 71.14 139.94 10.2-5.19-75.58-148.67 16.03-8.15 75.58 148.67 8.75-4.45-71.14-139.93 16.03-8.15 71.14 139.93 53.93-27.41-75.58-148.67 16.03-8.15 75.58 148.67 8.75-4.45-71.14-139.93 16.03-8.15 71.14 139.93 10.2-5.19-75.58-148.66 16.04-8.15 75.57 148.66 8.75-4.44-71.14-139.94 16.03-8.15 71.14 139.94 53.93-27.42-75.58-148.67 16.03-8.15L415.9 2279l8.75-4.44-71.14-139.94 16.03-8.15 71.14 139.94 10.2-5.19-75.58-148.67 16.04-8.15 75.57 148.67 8.75-4.45-71.14-139.93 16.03-8.15 71.14 139.93 55.39-28.15-75.58-148.67 16.03-8.15 75.58 148.67 8.74-4.45-71.13-139.93 16.03-8.15 71.14 139.93 10.2-5.19-75.58-148.66 16.03-8.15 75.58 148.66 8.75-4.44-71.14-139.94 16.03-8.15 71.14 139.94 53.93-27.42-75.58-148.67 16.03-8.15 75.58 148.67 8.75-4.44-71.14-139.94 16.03-8.15 71.14 139.94 10.2-5.2-75.58-148.66 16.04-8.15 75.57 148.67 8.75-4.45-71.14-139.93 16.03-8.15 71.14 139.93 53.93-27.41L763 1915.45l16.03-8.15 75.58 148.67 8.75-4.45-71.14-139.93 16.03-8.15 71.14 139.93 10.2-5.19-75.58-148.66 16.04-8.15 75.57 148.66 8.75-4.44-71.14-139.94 16.03-8.15 71.14 139.94 52.47-26.68-75.58-148.67 16.04-8.15 75.58 148.67 8.74-4.44-71.14-139.94 16.04-8.15 71.13 139.94 10.2-5.19-75.57-148.67 16.03-8.15 75.58 148.67 8.74-4.45-71.13-139.93 16.03-8.15 71.14 139.93 53.92-27.41-75.57-148.67 16.03-8.15 75.58 148.67 8.74-4.45-71.14-139.93 16.04-8.15 71.13 139.93 10.2-5.18-75.57-148.67 16.03-8.15 75.58 148.66 8.74-4.44-71.13-139.94 16.03-8.15 71.14 139.94 53.92-27.42-75.57-148.66 16.03-8.16 75.58 148.67 8.74-4.44-71.14-139.94 16.04-8.15 71.14 139.94 10.2-5.19-75.58-148.67 16.03-8.15 75.58 148.67 8.75-4.45-71.14-139.93 16.03-8.15 71.14 139.93 408.1-207.46 8.15 16.03-408.1 207.47 4.44 8.74 390.62-198.57 8.15 16.03-390.62 198.57 5.2 10.2 408.1-207.46 8.15 16.03-408.1 207.47 4.44 8.74 390.61-198.57 8.15 16.03-390.61 198.58 27.41 53.93 408.1-207.47 8.16 16.03-408.1 207.47 4.44 8.74 390.61-198.57 8.15 16.03-390.6 198.58 5.18 10.2 408.1-207.47 8.15 16.04-408.1 207.46 4.44 8.75 390.62-198.58 8.15 16.04-390.62 198.57 27.42 53.93 408.1-207.47 8.15 16.04-408.1 207.46 4.45 8.75 390.6-198.58 8.16 16.04-390.61 198.57 5.18 10.2 408.1-207.46 8.16 16.03-408.1 207.47 4.44 8.74 390.61-198.57 8.15 16.03-390.6 198.57 26.67 52.48 408.1-207.47 8.15 16.03-408.1 207.47 4.44 8.74 390.61-198.57 8.16 16.03-390.62 198.58 5.19 10.2 408.1-207.47 8.15 16.04-408.1 207.46 4.45 8.75 390.6-198.58 8.16 16.04-390.61 198.57 27.41 53.93 408.1-207.47 8.15 16.04-408.1 207.46 4.45 8.75 390.61-198.58 8.15 16.04-390.61 198.57 5.18 10.2 408.1-207.46 8.16 16.03-408.1 207.46 4.44 8.75 390.61-198.57 8.15 16.03-390.6 198.57 27.4 53.93 408.11-207.46 8.15 16.03-408.1 207.46 4.44 8.75 390.62-198.58 8.15 16.04L1756.68 2564l5.2 10.2 408.1-207.46 8.14 16.03-408.1 207.47 4.45 8.74 390.61-198.57 8.15 16.03-390.61 198.58 77.06 151.58-16.03 8.15-77.06-151.58-8.75 4.44 72.62 142.85-16.03 8.15-72.62-142.85-10.2 5.19 77.05 151.58-16.03 8.15-77.06-151.58-8.74 4.45 72.62 142.84-16.04 8.16-72.62-142.85-53.92 27.41 77.06 151.58-16.04 8.16-77.06-151.59-8.74 4.45 72.62 142.85-16.03 8.15-72.62-142.85-10.2 5.18 77.05 151.59-16.03 8.15-77.06-151.59-8.74 4.45 72.62 142.85-16.04 8.15-72.62-142.85-53.92 27.42 77.06 151.58-16.04 8.15-77.06-151.58-8.74 4.44 72.62 142.85-16.03 8.15-72.62-142.85-10.2 5.19 77.05 151.58-16.03 8.15-77.06-151.58-8.74 4.45 72.62 142.85-16.04 8.15-72.62-142.85-52.47 26.67 77.06 151.58-16.03 8.15-77.06-151.58-8.75 4.45 72.62 142.85-16.03 8.15-72.62-142.85-10.2 5.18 77.06 151.59-16.03 8.15-77.06-151.59-8.75 4.45 72.62 142.85-16.03 8.15-72.62-142.85-53.93 27.42 77.06 151.58-16.03 8.15-77.06-151.58-8.75 4.44 72.62 142.85-16.03 8.15-72.62-142.85-10.2 5.19 77.06 151.58-16.03 8.15-77.06-151.58-8.75 4.44 72.62 142.85-16.03 8.15-72.62-142.84-53.93 27.41 77.06 151.58-16.03 8.15-77.06-151.58-8.75 4.45 72.62 142.85-16.03 8.15-72.62-142.85-10.2 5.18 77.06 151.59-16.04 8.15-77.06-151.59-8.74 4.45 72.62 142.85-16.03 8.15-72.62-142.85-55.39 28.16 77.06 151.58-16.03 8.15-77.06-151.58-8.75 4.44 72.62 142.85-16.03 8.15-72.62-142.85-10.2 5.19 77.06 151.58-16.03 8.15-77.06-151.58-8.75 4.45 72.62 142.84-16.03 8.16-72.62-142.85-53.93 27.41 77.06 151.58-16.03 8.15-77.06-151.58-8.75 4.45 72.62 142.85-16.03 8.15-72.62-142.85-10.2 5.18 77.06 151.59-16.03 8.15-77.06-151.59-8.75 4.45 72.62 142.85-16.03 8.15-72.62-142.85-53.93 27.42 77.06 151.58-16.03 8.15-77.06-151.58-8.75 4.44 72.62 142.85-16.03 8.15-72.62-142.85-10.2 5.19 77.06 151.58-16.04 8.15-77.06-151.58-8.74 4.45 72.62 142.84-16.03 8.16-72.62-142.85-52.47 26.67 77.06 151.58-16.04 8.15-77.06-151.58-8.74 4.45 72.62 142.85-16.03 8.15-72.62-142.85-10.2 5.18 77.05 151.59-16.03 8.15-77.06-151.59-8.74 4.45 72.62 142.85-16.04 8.15-72.62-142.85-53.92 27.42 77.05 151.58-16.03 8.15-77.06-151.58-8.74 4.44 72.62 142.85-16.04 8.15-72.62-142.85-10.2 5.19 77.06 151.58-16.03 8.15-77.06-151.58-8.75 4.44 72.62 142.85-16.03 8.15-72.62-142.85-53.93 27.42 77.06 151.58-16.03 8.15-77.06-151.58-8.74 4.45 72.62 142.85-16.04 8.15L140 3450.08l-10.2 5.18 77.06 151.59-16.03 8.15-77.06-151.59-8.75 4.45 72.62 142.85-16.03 8.15L89 3476l-139.92 71.13-8.15-16.03 139.92-71.13-4.45-8.75-122.43 62.24-8.15-16.03 122.43-62.24-5.18-10.2-139.92 71.13-8.15-16.04 139.92-71.13-4.45-8.74-122.43 62.24-8.15-16.03 122.43-62.24-27.42-53.93-139.92 71.13-8.15-16.04 139.92-71.13-4.44-8.74-122.43 62.24-8.15-16.03 122.43-62.24-5.19-10.2-139.92 71.12-8.15-16.03 139.92-71.13-4.45-8.75-122.43 62.24-8.15-16.03 122.43-62.24-27.41-53.93-139.92 71.13-8.15-16.03 139.92-71.13-4.45-8.74-122.43 62.24-8.15-16.04 122.43-62.24-5.18-10.2-139.93 71.13-8.15-16.03 139.92-71.13-4.44-8.75-122.43 62.24-8.15-16.03 122.43-62.24-26.68-52.47-139.92 71.13-8.15-16.03 139.92-71.14-4.44-8.74-122.43 62.24-8.15-16.03 122.43-62.24-5.19-10.2-139.92 71.13-8.15-16.04 139.92-71.13-4.45-8.74-122.43 62.24-8.15-16.04 122.43-62.24-27.41-53.93-139.92 71.14-8.15-16.04 139.92-71.13-4.45-8.74-122.43 62.24-8.15-16.04 122.43-62.24-5.19-10.2-139.92 71.13-8.15-16.03 139.92-71.13-4.44-8.75-122.43 62.24-8.15-16.03 122.43-62.24-27.42-53.93-139.92 71.13-8.15-16.03 139.92-71.13-4.44-8.75-122.44 62.24-8.15-16.03 122.43-62.24-5.18-10.2-139.92 71.13-8.15-16.03 139.92-71.14-4.45-8.74-122.43 62.24zm1799.43-894.6l4.45 8.75 8.74-4.45-4.44-8.74zm12.6 24.78l5.18 10.2 8.75-4.44-5.19-10.2zm13.33 26.24l4.45 8.74 8.75-4.44-4.45-8.75zm12.6 24.77l27.42 53.93 8.74-4.44-27.41-53.93zm35.57 69.97l4.44 8.74 8.75-4.45-4.45-8.74zm12.6 24.77l5.18 10.2 8.75-4.44-5.2-10.2zm13.33 26.24l4.45 8.74 8.74-4.44-4.44-8.75zm12.6 24.78l27.41 53.93 8.75-4.45-27.42-53.93zm35.56 69.96l4.45 8.74 8.74-4.44-4.44-8.75zm12.6 24.78l5.19 10.2 8.74-4.45-5.19-10.2zm13.34 26.23l4.44 8.75 8.75-4.45-4.45-8.74zm12.6 24.78l26.67 52.47 8.74-4.44-26.67-52.48zm34.82 68.5l4.44 8.75 8.75-4.45-4.45-8.74zm12.6 24.78l5.18 10.2 8.75-4.44-5.19-10.2zm13.33 26.24l4.45 8.74 8.74-4.44-4.44-8.75zm12.6 24.78l27.41 53.92 8.75-4.44-27.42-53.93zm35.56 69.96l4.45 8.74 8.75-4.44-4.45-8.75zm12.6 24.78l5.19 10.2 8.74-4.45-5.18-10.2zm13.34 26.23l4.44 8.75 8.75-4.45-4.45-8.74zm12.6 24.78l27.41 53.93 8.74-4.45-27.41-53.93zm35.56 69.96l4.45 8.75 8.74-4.45-4.44-8.75zm12.6 24.78l5.18 10.2 8.75-4.44-5.19-10.2zm13.33 26.23l4.45 8.75 8.74-4.45-4.44-8.74zm-421.9-764.98l4.44 8.74 10.2-5.18-4.44-8.75zm12.6 24.78l5.18 10.2 10.2-5.19-5.19-10.2zm13.33 26.23l4.45 8.75 10.2-5.19-4.45-8.74zm12.6 24.78l27.41 53.93 10.2-5.19-27.41-53.93zm35.56 69.96l4.45 8.75 10.2-5.19-4.45-8.74zm12.6 24.78l5.18 10.2 10.2-5.18-5.18-10.2zm13.34 26.24l4.44 8.74 10.2-5.19-4.44-8.74zm12.6 24.77l27.4 53.93 10.21-5.18-27.42-53.93zm35.56 69.97l4.44 8.74 10.2-5.19-4.44-8.74zm12.6 24.77l5.18 10.2 10.2-5.18-5.18-10.2zm13.33 26.24l4.45 8.74 10.2-5.18-4.45-8.75zm12.6 24.78l26.67 52.47 10.2-5.19-26.67-52.47zm34.82 68.5l4.45 8.75 10.2-5.19-4.44-8.75zm12.6 24.78l5.19 10.2 10.2-5.18-5.19-10.2zm13.34 26.23l4.44 8.75 10.2-5.19-4.44-8.74zm12.6 24.78l27.4 53.93 10.21-5.18-27.41-53.93zm35.56 69.96l4.44 8.75 10.2-5.19-4.44-8.74zm12.6 24.78l5.18 10.2 10.2-5.18-5.18-10.2zm13.33 26.24l4.45 8.74 10.2-5.18-4.44-8.75zm12.6 24.78l27.41 53.92 10.2-5.18-27.4-53.93zm35.57 69.96l4.44 8.74 10.2-5.18-4.44-8.75zm12.6 24.78l5.18 10.2 10.2-5.19-5.19-10.2zm13.33 26.23l4.44 8.75 10.2-5.19-4.44-8.75zm-420.45-765.72l4.44 8.74 8.75-4.44-4.45-8.75zm12.6 24.77l5.18 10.2 8.75-4.44-5.2-10.2zm13.33 26.24l4.45 8.74 8.74-4.44-4.44-8.75zm12.6 24.78l27.41 53.93 8.75-4.45-27.42-53.93zm35.56 69.96l4.45 8.74 8.74-4.44-4.44-8.75zm12.6 24.78l5.19 10.2 8.74-4.45-5.18-10.2zm13.34 26.23l4.44 8.75 8.75-4.45-4.45-8.74zm12.6 24.78l27.41 53.93 8.74-4.45-27.41-53.93zm35.56 69.96l4.45 8.75 8.74-4.45-4.44-8.74zm12.6 24.78l5.18 10.2 8.75-4.44-5.19-10.2zm13.33 26.24l4.45 8.74 8.74-4.44-4.44-8.75zm12.6 24.77l26.67 52.47 8.75-4.44-26.67-52.47zm34.83 68.5l4.44 8.75 8.75-4.44-4.45-8.75zm12.6 24.79l5.18 10.2 8.74-4.45-5.18-10.2zm13.33 26.23l4.44 8.75 8.75-4.45-4.45-8.74zm12.6 24.78l27.41 53.93 8.75-4.45-27.42-53.93zm35.56 69.96l4.45 8.75 8.74-4.45-4.44-8.74zm12.6 24.78l5.18 10.2 8.75-4.44-5.19-10.2zm13.33 26.23l4.45 8.75 8.75-4.45-4.45-8.74zm12.6 24.78l27.42 53.93 8.74-4.44-27.41-53.93zm35.57 69.96l4.44 8.75 8.75-4.45-4.45-8.74zm12.6 24.78l5.18 10.2 8.75-4.44-5.2-10.2zm13.33 26.24l4.45 8.74 8.74-4.44-4.44-8.75zm-465.63-742.76l4.44 8.75 53.93-27.42-4.44-8.74zm12.6 24.78l5.18 10.2 53.93-27.41-5.19-10.2zm13.33 26.23l4.45 8.75 53.92-27.42-4.44-8.74zm12.6 24.78l27.41 53.93 53.93-27.41-27.41-53.93zm35.56 69.96l4.45 8.75 53.93-27.42-4.45-8.74zm12.6 24.78l5.19 10.2 53.92-27.41-5.18-10.2zm13.34 26.24l4.44 8.74 53.93-27.41-4.44-8.75zm12.6 24.78l27.4 53.92 53.94-27.41-27.42-53.93zm35.56 69.96l4.45 8.74 53.92-27.41-4.44-8.75zm12.6 24.78l5.18 10.2 53.93-27.42-5.19-10.2zm13.33 26.23l4.45 8.75 53.93-27.42-4.45-8.74zm12.6 24.78l26.67 52.47 53.93-27.41-26.67-52.48zm34.82 68.5l4.45 8.75 53.93-27.42-4.45-8.74zm12.6 24.78l5.19 10.2 53.93-27.41-5.2-10.2zm13.34 26.24l4.44 8.74 53.93-27.41-4.44-8.75zm12.6 24.77l27.41 53.93 53.93-27.41-27.42-53.93zm35.56 69.97l4.45 8.74 53.92-27.41-4.44-8.75zm12.6 24.77l5.18 10.2 53.93-27.4-5.18-10.21zm13.33 26.24l4.45 8.75 53.93-27.42-4.45-8.75zm12.6 24.78l27.42 53.93 53.92-27.42-27.41-53.93zm35.57 69.96l4.44 8.74 53.93-27.41-4.45-8.75zm12.6 24.78l5.18 10.2 53.93-27.41-5.19-10.2zm13.33 26.23l4.45 8.75 53.92-27.42-4.44-8.74zm-420.45-765.72l4.45 8.74 8.74-4.44-4.45-8.75zm12.6 24.78l5.18 10.2 8.75-4.45-5.19-10.2zm13.33 26.23l4.45 8.75 8.74-4.45-4.44-8.74zm12.6 24.78l27.42 53.93 8.74-4.45-27.42-53.93zm35.57 69.96l4.44 8.75 8.75-4.45-4.45-8.75zm12.6 24.78l5.18 10.2 8.74-4.44-5.18-10.2zm13.33 26.23l4.45 8.75 8.74-4.45-4.45-8.74zm12.6 24.78l27.41 53.93 8.75-4.45-27.42-53.92zm35.56 69.96l4.45 8.75 8.74-4.45-4.44-8.74zm12.6 24.78l5.19 10.2 8.74-4.44-5.19-10.2zm13.34 26.24l4.44 8.74 8.75-4.44-4.45-8.75zm12.6 24.78l26.67 52.47 8.74-4.45-26.67-52.47zm34.82 68.5l4.44 8.74 8.75-4.44-4.45-8.75zm12.6 24.78l5.18 10.2 8.75-4.45-5.2-10.2zm13.33 26.23l4.45 8.75 8.74-4.45-4.44-8.74zm12.6 24.78l27.41 53.93 8.75-4.45-27.42-53.92zm35.56 69.96l4.45 8.75 8.74-4.45-4.44-8.74zm12.6 24.78l5.19 10.2 8.74-4.44-5.19-10.2zm13.34 26.24l4.44 8.74 8.75-4.44-4.45-8.75zm12.6 24.77l27.4 53.93 8.75-4.44-27.41-53.93zm35.56 69.97l4.44 8.74 8.75-4.45-4.45-8.74zm12.6 24.77l5.18 10.2 8.75-4.44-5.19-10.2zm13.33 26.24l4.45 8.74 8.74-4.44-4.44-8.75zm-421.9-764.99l4.44 8.75 10.2-5.19-4.44-8.74zm12.6 24.78l5.18 10.2 10.2-5.18-5.19-10.2zm13.33 26.24l4.44 8.74 10.2-5.18-4.44-8.75zm12.6 24.78l27.41 53.92 10.2-5.18-27.41-53.93zm35.56 69.96l4.45 8.74 10.2-5.18-4.45-8.75zm12.6 24.78l5.18 10.2 10.2-5.19-5.18-10.2zm13.33 26.23l4.45 8.75 10.2-5.19-4.44-8.75zm12.6 24.78l27.42 53.93 10.2-5.19-27.42-53.93zm35.57 69.96l4.44 8.75 10.2-5.2-4.44-8.74zm12.6 24.78l5.18 10.2 10.2-5.19-5.18-10.2zm13.33 26.23l4.45 8.75 10.2-5.19-4.45-8.74zm12.6 24.78l26.67 52.47 10.2-5.18-26.67-52.47zm34.82 68.5l4.45 8.75 10.2-5.19-4.45-8.74zm12.6 24.78l5.19 10.2 10.2-5.18-5.19-10.2zm13.34 26.24l4.44 8.75 10.2-5.2-4.44-8.74zm12.6 24.78l27.4 53.93 10.21-5.19-27.42-53.93zm35.56 69.96l4.44 8.74 10.2-5.18-4.44-8.75zm12.6 24.78l5.18 10.2 10.2-5.19-5.18-10.2zm13.33 26.23l4.45 8.75 10.2-5.19-4.45-8.74zm12.6 24.78l27.41 53.93 10.2-5.19-27.4-53.93zm35.56 69.96l4.45 8.75 10.2-5.19-4.44-8.74zm12.6 24.78l5.19 10.2 10.2-5.18-5.19-10.2zm13.34 26.24l4.44 8.74 10.2-5.19-4.44-8.74zm-420.45-765.73l4.44 8.75 8.75-4.45-4.45-8.75zm12.6 24.78l5.18 10.2 8.75-4.44-5.2-10.2zm13.33 26.23l4.45 8.75 8.74-4.45-4.44-8.74zm12.6 24.78l27.41 53.93 8.75-4.44-27.42-53.93zm35.56 69.96l4.45 8.75 8.74-4.45-4.44-8.74zm12.6 24.78l5.19 10.2 8.74-4.44-5.19-10.2zm13.34 26.24l4.44 8.74 8.75-4.44-4.45-8.75zm12.6 24.78l27.4 53.92 8.75-4.44-27.41-53.93zm35.56 69.96l4.44 8.74 8.75-4.44-4.45-8.75zm12.6 24.77l5.18 10.2 8.75-4.44-5.19-10.2zm13.33 26.24l4.45 8.75 8.74-4.45-4.44-8.75zm12.6 24.78l26.67 52.47 8.75-4.45-26.68-52.47zm34.82 68.5l4.45 8.75 8.75-4.45-4.45-8.74zm12.6 24.78l5.19 10.2 8.74-4.44-5.18-10.2zm13.34 26.24l4.44 8.74 8.75-4.44-4.45-8.75zm12.6 24.77l27.41 53.93 8.74-4.44-27.41-53.93zm35.56 69.97l4.45 8.74 8.74-4.45-4.44-8.74zm12.6 24.77l5.18 10.2 8.75-4.44-5.19-10.2zm13.33 26.24l4.45 8.74 8.74-4.44-4.44-8.75zm12.6 24.78l27.42 53.93 8.74-4.45-27.41-53.93zm35.57 69.96l4.44 8.74 8.75-4.44-4.45-8.75zm12.6 24.78l5.18 10.2 8.74-4.45-5.18-10.2zm13.33 26.23l4.45 8.75 8.74-4.45-4.44-8.74zm-465.63-742.75l4.44 8.74 53.93-27.41-4.45-8.75zm12.6 24.77l5.18 10.2 53.93-27.4-5.19-10.21zm13.33 26.24l4.45 8.74 53.92-27.41-4.44-8.75zm12.6 24.78l27.41 53.93 53.93-27.42-27.42-53.93zm35.56 69.96l4.45 8.74 53.93-27.41-4.45-8.75zm12.6 24.78l5.19 10.2 53.92-27.42-5.18-10.2zm13.34 26.23l4.44 8.75 53.93-27.42-4.45-8.74zm12.6 24.78l27.4 53.93 53.94-27.42-27.42-53.92zm35.56 69.96l4.44 8.75 53.93-27.42-4.44-8.74zm12.6 24.78l5.18 10.2 53.93-27.41-5.19-10.2zm13.33 26.24l4.45 8.74 53.93-27.41-4.45-8.75zm12.6 24.77l26.67 52.48 53.93-27.42-26.67-52.47zm34.82 68.5l4.45 8.75 53.93-27.41-4.45-8.75zm12.6 24.79l5.19 10.2 53.92-27.42-5.18-10.2zm13.34 26.23l4.44 8.75 53.93-27.42-4.44-8.74zm12.6 24.78l27.4 53.93 53.94-27.42-27.42-53.93zm35.56 69.96l4.45 8.75 53.92-27.42-4.44-8.74zm12.6 24.78l5.18 10.2 53.93-27.41-5.19-10.2zm13.33 26.23l4.45 8.75 53.93-27.42-4.45-8.74zm12.6 24.78l27.42 53.93 53.92-27.41-27.41-53.93zm35.57 69.96l4.44 8.75 53.93-27.42-4.45-8.74zm12.6 24.78l5.18 10.2 53.93-27.41-5.19-10.2zm13.33 26.24l4.45 8.74 53.92-27.41-4.44-8.75zm-420.45-765.73l4.44 8.75 8.75-4.45-4.45-8.74zm12.6 24.78l5.18 10.2 8.75-4.44-5.19-10.2zm13.33 26.24l4.45 8.74 8.74-4.44-4.44-8.75zm12.6 24.77l27.41 53.93 8.75-4.44-27.42-53.93zm35.57 69.97l4.44 8.74 8.75-4.45-4.45-8.74zm12.6 24.77l5.18 10.2 8.74-4.44-5.18-10.2zm13.33 26.24l4.44 8.74 8.75-4.44-4.45-8.75zm12.6 24.78l27.41 53.93 8.75-4.45-27.42-53.93zm35.56 69.96l4.45 8.74 8.74-4.44-4.44-8.75zm12.6 24.78l5.18 10.2 8.75-4.45-5.19-10.2zm13.33 26.23l4.45 8.75 8.75-4.45-4.45-8.74zm12.6 24.78l26.68 52.47 8.74-4.44-26.67-52.48zm34.83 68.5l4.44 8.75 8.75-4.45-4.45-8.74zm12.6 24.78l5.18 10.2 8.74-4.44-5.18-10.2zm13.33 26.24l4.45 8.74 8.74-4.44-4.45-8.75zm12.6 24.78l27.41 53.92 8.75-4.44-27.42-53.93zm35.56 69.96l4.45 8.74 8.74-4.44-4.44-8.75zm12.6 24.78l5.19 10.2 8.74-4.45-5.19-10.2zm13.34 26.23l4.44 8.75 8.75-4.45-4.45-8.74zm12.6 24.78l27.4 53.93 8.75-4.45-27.41-53.93zm35.56 69.96l4.44 8.75 8.75-4.45-4.45-8.75zm12.6 24.78l5.18 10.2 8.75-4.44-5.19-10.2zm13.33 26.23l4.45 8.75 8.74-4.45-4.44-8.74zm-421.9-764.98l4.44 8.74 10.2-5.18-4.44-8.75zm12.59 24.78l5.19 10.2 10.2-5.19-5.19-10.2zm13.34 26.23l4.44 8.75 10.2-5.19-4.44-8.74zm12.6 24.78l27.4 53.93 10.21-5.19-27.41-53.93zm35.56 69.96l4.45 8.75 10.2-5.19-4.45-8.74zm12.6 24.78l5.18 10.2 10.2-5.18-5.18-10.2zm13.33 26.24l4.45 8.74 10.2-5.19-4.44-8.74zm12.6 24.77l27.42 53.93 10.2-5.18-27.42-53.93zm35.57 69.97l4.44 8.74 10.2-5.19-4.44-8.74zm12.6 24.77l5.18 10.2 10.2-5.18-5.19-10.2zm13.33 26.24l4.45 8.74 10.2-5.18-4.45-8.75zm12.6 24.78l26.67 52.47 10.2-5.19-26.67-52.47zm34.82 68.5l4.45 8.75 10.2-5.19-4.45-8.75zm12.6 24.78l5.18 10.2 10.2-5.18-5.18-10.2zm13.33 26.23l4.45 8.75 10.2-5.19-4.44-8.74zm12.6 24.78l27.42 53.93 10.2-5.18-27.42-53.93zm35.57 69.96l4.44 8.75 10.2-5.19-4.44-8.74zm12.6 24.78l5.18 10.2 10.2-5.18-5.18-10.2zm13.33 26.24l4.45 8.74 10.2-5.18-4.45-8.75zm12.6 24.78l27.41 53.92 10.2-5.18-27.41-53.93zm35.56 69.96l4.45 8.74 10.2-5.18-4.44-8.75zm12.6 24.78l5.19 10.2 10.2-5.19-5.19-10.2zm13.34 26.23l4.44 8.75 10.2-5.19-4.44-8.75zm-420.45-765.72l4.44 8.74 8.75-4.44-4.45-8.75zm12.6 24.77l5.18 10.2 8.74-4.44-5.18-10.2zm13.33 26.24l4.45 8.74 8.74-4.44-4.45-8.75zm12.6 24.78l27.41 53.93 8.75-4.45-27.42-53.93zm35.56 69.96l4.45 8.74 8.74-4.44-4.44-8.75zm12.6 24.78l5.19 10.2 8.74-4.45-5.19-10.2zm13.34 26.23l4.44 8.75 8.75-4.45-4.45-8.74zm12.6 24.78l27.4 53.93 8.75-4.45-27.41-53.93zm35.56 69.96l4.44 8.75 8.75-4.45-4.45-8.74zm12.6 24.78l5.18 10.2 8.75-4.44-5.19-10.2zm13.33 26.24l4.45 8.74 8.74-4.45-4.44-8.74zm12.6 24.77l26.67 52.47 8.75-4.44-26.68-52.47zm34.82 68.5l4.45 8.75 8.74-4.44-4.44-8.75zm12.6 24.79l5.19 10.2 8.74-4.45-5.19-10.2zm13.34 26.23l4.44 8.75 8.75-4.45-4.45-8.74zm12.6 24.78l27.4 53.93 8.75-4.45-27.41-53.93zm35.56 69.96l4.44 8.75 8.75-4.45-4.45-8.75zm12.6 24.78l5.18 10.2 8.75-4.44-5.19-10.2zm13.33 26.23l4.45 8.75 8.74-4.45-4.44-8.74zm12.6 24.78l27.41 53.93 8.75-4.44-27.42-53.93zm35.57 69.96l4.44 8.75 8.75-4.45-4.45-8.74zm12.6 24.78l5.18 10.2 8.74-4.44-5.18-10.2zm13.33 26.24l4.44 8.74 8.75-4.44-4.45-8.75zm-464.18-743.5l4.45 8.75 52.47-26.68-4.45-8.74zm12.6 24.78l5.19 10.2 52.47-26.67-5.19-10.2zm13.34 26.23l4.44 8.75 52.47-26.68-4.44-8.74zm12.6 24.78l27.4 53.93 52.48-26.67-27.42-53.93zm35.56 69.96l4.44 8.75 52.48-26.68-4.45-8.74zm12.6 24.78l5.18 10.2 52.47-26.67-5.18-10.2zm13.33 26.24l4.45 8.74 52.47-26.67-4.45-8.75zm12.6 24.77l27.41 53.93 52.47-26.67-27.41-53.93zm35.57 69.97l4.44 8.74 52.47-26.67-4.44-8.75zm12.6 24.77l5.18 10.2 52.47-26.67-5.19-10.2zm13.33 26.24l4.44 8.75 52.47-26.68-4.44-8.74zm12.6 24.78l26.67 52.47 52.47-26.67-26.67-52.48zm34.82 68.5l4.45 8.75 52.47-26.68-4.45-8.74zm12.6 24.78l5.18 10.2 52.47-26.67-5.18-10.2zm13.33 26.24l4.45 8.74 52.47-26.67-4.45-8.75zm12.6 24.77l27.42 53.93 52.47-26.67-27.42-53.93zm35.57 69.97l4.44 8.74 52.47-26.67-4.44-8.75zm12.6 24.77l5.18 10.2 52.47-26.67-5.19-10.2zm13.33 26.24l4.45 8.74 52.47-26.67-4.45-8.75zm12.6 24.78l27.41 53.93 52.47-26.68-27.41-53.93zm35.56 69.96l4.45 8.74 52.47-26.67-4.45-8.75zm12.6 24.78l5.19 10.2 52.47-26.67-5.2-10.2zm13.34 26.23l4.44 8.75 52.47-26.68-4.44-8.74zm-420.45-765.72l4.44 8.74 8.75-4.44-4.45-8.75zm12.6 24.77l5.18 10.2 8.74-4.44-5.18-10.2zm13.33 26.24l4.44 8.75 8.75-4.45-4.45-8.75zm12.6 24.78l27.41 53.93 8.75-4.45-27.42-53.93zm35.56 69.96l4.45 8.74 8.74-4.44-4.44-8.75zm12.6 24.78l5.18 10.2 8.75-4.45-5.19-10.2zm13.34 26.23l4.44 8.75 8.75-4.45-4.45-8.74zm12.6 24.78l27.4 53.93 8.75-4.45-27.41-53.92zm35.56 69.96l4.44 8.75 8.75-4.45-4.45-8.74zm12.6 24.78l5.18 10.2 8.75-4.44-5.2-10.2zm13.33 26.24l4.45 8.74 8.74-4.44-4.44-8.75zm12.6 24.77l26.67 52.48 8.75-4.45-26.68-52.47zm34.82 68.5l4.45 8.75 8.74-4.44-4.44-8.75zm12.6 24.79l5.19 10.2 8.74-4.45-5.19-10.2zm13.34 26.23l4.44 8.75 8.75-4.45-4.45-8.74zm12.6 24.78l27.4 53.93 8.75-4.45-27.41-53.93zm35.56 69.96l4.44 8.75 8.75-4.45-4.45-8.74zm12.6 24.78l5.18 10.2 8.75-4.44-5.19-10.2zm13.33 26.23l4.45 8.75 8.74-4.45-4.44-8.74zm12.6 24.78l27.41 53.93 8.75-4.44-27.42-53.93zm35.56 69.96l4.45 8.75 8.75-4.45-4.45-8.74zm12.6 24.78l5.19 10.2 8.74-4.44-5.18-10.2zm13.34 26.24l4.44 8.74 8.75-4.44-4.45-8.75zM887.54 2059.4l4.45 8.75 10.2-5.19-4.45-8.74zm12.6 24.78l5.18 10.2 10.2-5.18-5.18-10.2zm13.33 26.24l4.45 8.74 10.2-5.18-4.44-8.75zm12.6 24.77l27.42 53.93 10.2-5.18-27.42-53.93zm35.57 69.97l4.44 8.74 10.2-5.18-4.44-8.75zm12.6 24.77l5.18 10.2 10.2-5.18-5.18-10.2zm13.33 26.24l4.45 8.75 10.2-5.2-4.45-8.74zm12.6 24.78l27.41 53.93 10.2-5.19-27.41-53.93zm35.56 69.96l4.45 8.74 10.2-5.18-4.45-8.75zm12.6 24.78l5.19 10.2 10.2-5.19-5.19-10.2zm13.34 26.23l4.44 8.75 10.2-5.19-4.44-8.74zm12.6 24.78l26.67 52.47 10.2-5.18-26.68-52.48zm34.82 68.5l4.44 8.75 10.2-5.19-4.44-8.74zm12.6 24.78l5.18 10.2 10.2-5.18-5.18-10.2zm13.33 26.24l4.45 8.74 10.2-5.18-4.45-8.75zm12.6 24.78l27.41 53.93 10.2-5.2-27.41-53.92zm35.56 69.96l4.45 8.74 10.2-5.18-4.44-8.75zm12.6 24.78l5.19 10.2 10.2-5.19-5.19-10.2zm13.34 26.23l4.44 8.75 10.2-5.19-4.44-8.74zm12.6 24.78l27.4 53.93 10.21-5.19-27.41-53.93zm35.56 69.96l4.45 8.75 10.2-5.19-4.45-8.74zm12.6 24.78l5.18 10.2 10.2-5.18-5.18-10.2zm13.33 26.24l4.45 8.74 10.2-5.19-4.44-8.74zM862.76 2072l4.45 8.74 8.74-4.44-4.44-8.75zm12.6 24.78l5.19 10.2 8.74-4.45-5.19-10.2zM888.7 2123l4.44 8.75 8.75-4.45-4.45-8.74zm12.6 24.78l27.4 53.93 8.75-4.45-27.41-53.92zm35.56 69.96l4.44 8.75 8.75-4.45-4.45-8.74zm12.6 24.78l5.18 10.2 8.75-4.44-5.19-10.2zm13.33 26.24l4.45 8.74 8.74-4.44-4.44-8.75zm12.6 24.77l27.41 53.93 8.75-4.44-27.42-53.93zm35.56 69.97l4.45 8.74 8.75-4.44-4.45-8.75zm12.6 24.77l5.19 10.2 8.74-4.44-5.18-10.2zm13.34 26.24l4.44 8.74 8.75-4.44-4.45-8.75zm12.6 24.78l26.67 52.47 8.74-4.45-26.67-52.47zm34.82 68.5l4.45 8.75 8.74-4.45-4.45-8.74zm12.6 24.78l5.18 10.2 8.75-4.44-5.19-10.2zm13.33 26.24l4.45 8.74 8.74-4.45-4.44-8.74zm12.6 24.77l27.42 53.93 8.74-4.44-27.42-53.93zm35.57 69.96l4.44 8.75 8.75-4.45-4.45-8.74zm12.6 24.78l5.18 10.2 8.74-4.44-5.18-10.2zm13.33 26.24l4.45 8.74 8.74-4.44-4.45-8.75zm12.6 24.78l27.41 53.93 8.75-4.45-27.42-53.93zm35.56 69.96l4.45 8.74 8.74-4.44-4.44-8.75zm12.6 24.78l5.18 10.2 8.75-4.45-5.19-10.2zm13.34 26.23l4.44 8.75 8.75-4.45-4.45-8.74zM792.8 2107.57l4.45 8.74 53.93-27.41-4.45-8.75zm12.6 24.77l5.19 10.2 53.92-27.4-5.18-10.21zm13.34 26.24l4.44 8.74 53.93-27.41-4.45-8.75zm12.6 24.78l27.4 53.93 53.94-27.42-27.42-53.93zm35.56 69.96l4.44 8.74 53.93-27.41-4.44-8.75zm12.6 24.78l5.18 10.2 53.93-27.42-5.19-10.2zm13.33 26.23l4.45 8.75 53.93-27.42-4.45-8.74zm12.6 24.78l27.41 53.93 53.93-27.42-27.41-53.93zm35.56 69.96l4.45 8.75 53.93-27.42-4.45-8.74zm12.6 24.78l5.19 10.2 53.93-27.41-5.2-10.2zm13.34 26.24l4.44 8.74 53.93-27.41-4.44-8.75zm12.6 24.77l26.67 52.47 53.93-27.41-26.68-52.47zm34.82 68.5l4.44 8.75 53.93-27.41-4.44-8.75zm12.6 24.79l5.18 10.2 53.93-27.42-5.19-10.2zm13.33 26.23l4.45 8.75 53.93-27.42-4.45-8.74zm12.6 24.78l27.41 53.93 53.93-27.42-27.41-53.93zm35.57 69.96l4.44 8.75 53.93-27.42-4.45-8.74zm12.6 24.78l5.18 10.2 53.93-27.41-5.19-10.2zm13.33 26.23l4.44 8.75 53.93-27.42-4.44-8.74zm12.6 24.78l27.41 53.93 53.93-27.41-27.42-53.93zm35.56 69.96l4.45 8.75 53.92-27.42-4.44-8.74zm12.6 24.78l5.18 10.2 53.93-27.41-5.18-10.2zm13.33 26.24l4.45 8.74 53.93-27.41-4.45-8.75zm-420.45-765.73l4.45 8.75 8.75-4.45-4.45-8.74zm12.6 24.78l5.19 10.2 8.74-4.44-5.18-10.2zm13.34 26.23l4.44 8.75 8.75-4.45-4.45-8.74zm12.6 24.78l27.41 53.93 8.74-4.44-27.41-53.93zm35.56 69.96l4.45 8.75 8.74-4.45-4.44-8.74zm12.6 24.78l5.18 10.2 8.75-4.44-5.19-10.2zm13.33 26.24l4.45 8.74 8.74-4.44-4.44-8.75zm12.6 24.78l27.42 53.92 8.74-4.44-27.41-53.93zm35.57 69.96l4.44 8.74 8.75-4.44-4.45-8.75zm12.6 24.78l5.18 10.2 8.74-4.45-5.18-10.2zm13.33 26.23l4.45 8.75 8.74-4.45-4.44-8.74zm12.6 24.78l26.67 52.47 8.75-4.45-26.68-52.47zm34.82 68.5l4.45 8.75 8.74-4.45-4.44-8.74zm12.6 24.78l5.18 10.2 8.75-4.44-5.19-10.2zm13.34 26.24l4.44 8.74 8.75-4.44-4.45-8.75zm12.6 24.77l27.4 53.93 8.75-4.44-27.41-53.93zm35.56 69.97l4.44 8.74 8.75-4.44-4.45-8.75zm12.6 24.77l5.18 10.2 8.75-4.44-5.2-10.2zm13.33 26.24l4.45 8.75 8.74-4.45-4.44-8.75zm12.6 24.78l27.41 53.93 8.75-4.45-27.42-53.93zm35.56 69.96l4.45 8.74 8.74-4.44-4.44-8.75zm12.6 24.78l5.19 10.2 8.74-4.45-5.19-10.2zm13.34 26.23l4.44 8.75 8.75-4.45-4.45-8.74zM741.79 2133.5l4.45 8.74 10.2-5.18-4.45-8.75zm12.6 24.78l5.18 10.2 10.2-5.19-5.18-10.2zm13.33 26.23l4.45 8.75 10.2-5.19-4.44-8.74zm12.6 24.78l27.41 53.93 10.2-5.19-27.4-53.93zm35.57 69.96l4.44 8.75 10.2-5.19-4.44-8.74zm12.6 24.78l5.18 10.2 10.2-5.18-5.19-10.2zm13.33 26.23l4.44 8.75 10.2-5.19-4.44-8.74zm12.6 24.78l27.41 53.93 10.2-5.18-27.41-53.93zm35.56 69.96l4.45 8.75 10.2-5.19-4.45-8.74zm12.6 24.78l5.18 10.2 10.2-5.18-5.18-10.2zm13.33 26.24l4.45 8.74 10.2-5.18-4.44-8.75zm12.6 24.78l26.68 52.47 10.2-5.19-26.68-52.47zm34.83 68.5l4.44 8.75 10.2-5.2-4.44-8.74zm12.6 24.78l5.18 10.2 10.2-5.19-5.18-10.2zm13.33 26.23l4.45 8.75 10.2-5.19-4.45-8.74zm12.6 24.78l27.41 53.93 10.2-5.19-27.41-53.92zm35.56 69.96l4.45 8.75 10.2-5.19-4.45-8.74zm12.6 24.78l5.19 10.2 10.2-5.18-5.19-10.2zm13.34 26.24l4.44 8.74 10.2-5.18-4.44-8.75zm12.6 24.78l27.4 53.92 10.21-5.18-27.42-53.93zm35.56 69.96l4.44 8.74 10.2-5.18-4.44-8.75zm12.6 24.77l5.18 10.2 10.2-5.18-5.18-10.2zm13.33 26.24l4.45 8.75 10.2-5.2-4.45-8.74zm-420.45-765.73l4.45 8.75 8.74-4.45-4.44-8.74zm12.6 24.78l5.18 10.2 8.75-4.44-5.19-10.2zm13.34 26.24l4.44 8.74 8.75-4.44-4.45-8.75zm12.6 24.78l27.4 53.92 8.75-4.44-27.41-53.93zm35.56 69.96l4.44 8.74 8.75-4.44-4.45-8.75zm12.6 24.78l5.18 10.2 8.75-4.45-5.2-10.2zm13.33 26.23l4.45 8.75 8.74-4.45-4.44-8.74zm12.6 24.78l27.41 53.93 8.75-4.45-27.42-53.93zm35.56 69.96l4.45 8.75 8.74-4.45-4.44-8.74zm12.6 24.78l5.19 10.2 8.74-4.44-5.19-10.2zm13.34 26.23l4.44 8.75 8.75-4.45-4.45-8.74zm12.6 24.78l26.67 52.47 8.74-4.44-26.67-52.47zm34.82 68.5l4.44 8.75 8.75-4.44-4.45-8.75zm12.6 24.78l5.18 10.2 8.75-4.44-5.19-10.2zm13.33 26.24l4.45 8.75 8.74-4.45-4.44-8.75zm12.6 24.78l27.41 53.93 8.75-4.45-27.42-53.93zm35.56 69.96l4.45 8.74 8.75-4.44-4.45-8.75zm12.6 24.78l5.19 10.2 8.74-4.45-5.18-10.2zm13.34 26.23l4.44 8.75 8.75-4.45-4.45-8.74zm12.6 24.78l27.41 53.93 8.75-4.45-27.42-53.92zm35.56 69.96l4.45 8.75 8.74-4.45-4.44-8.74zm12.6 24.78l5.18 10.2 8.75-4.44-5.19-10.2zm13.33 26.24l4.45 8.74 8.75-4.44-4.45-8.75zm-465.63-742.76l4.45 8.75 53.92-27.42-4.44-8.75zm12.6 24.78l5.18 10.2 53.93-27.41-5.18-10.2zm13.33 26.23l4.45 8.75 53.93-27.42-4.45-8.74zm12.6 24.78l27.42 53.93 53.92-27.41-27.41-53.93zm35.57 69.96l4.44 8.75 53.93-27.42-4.45-8.74zm12.6 24.78l5.18 10.2 53.93-27.41-5.19-10.2zm13.33 26.24l4.45 8.74 53.92-27.41-4.44-8.75zm12.6 24.77l27.41 53.93 53.93-27.41-27.42-53.93zm35.56 69.97l4.45 8.74 53.93-27.41-4.45-8.75zm12.6 24.77l5.19 10.2 53.92-27.4-5.18-10.21zm13.34 26.24l4.44 8.75 53.93-27.42-4.45-8.75zm12.6 24.78l26.67 52.47 53.93-27.42-26.68-52.47zm34.82 68.5l4.44 8.75 53.93-27.42-4.44-8.74zm12.6 24.78l5.18 10.2 53.93-27.41-5.19-10.2zm13.33 26.24l4.45 8.74 53.93-27.41-4.45-8.75zm12.6 24.77l27.41 53.93 53.93-27.41-27.41-53.93zm35.56 69.97l4.45 8.74 53.93-27.41-4.45-8.75zm12.6 24.77l5.19 10.2 53.93-27.4-5.2-10.21zm13.34 26.24l4.44 8.74 53.93-27.41-4.44-8.75zm12.6 24.78l27.41 53.93 53.93-27.42-27.42-53.93zm35.56 69.96l4.45 8.74 53.92-27.41-4.44-8.75zm12.6 24.78l5.18 10.2 53.93-27.42-5.19-10.2zm13.33 26.23l4.45 8.75 53.93-27.42-4.45-8.74zm-420.45-765.72l4.45 8.74 8.74-4.44-4.44-8.75zm12.6 24.77l5.19 10.2 8.74-4.44-5.19-10.2zm13.34 26.24l4.44 8.75 8.75-4.45-4.45-8.75zm12.6 24.78l27.4 53.93 8.75-4.45-27.41-53.93zm35.56 69.96l4.45 8.74 8.74-4.44-4.45-8.75zm12.6 24.78l5.18 10.2 8.75-4.45-5.19-10.2zm13.33 26.23l4.45 8.75 8.74-4.45-4.44-8.74zm12.6 24.78l27.41 53.93 8.75-4.45-27.42-53.92zm35.57 69.96l4.44 8.75 8.75-4.45-4.45-8.74zm12.6 24.78l5.18 10.2 8.74-4.44-5.18-10.2zm13.33 26.24l4.44 8.74 8.75-4.44-4.45-8.75zm12.6 24.77l26.67 52.48 8.75-4.45-26.68-52.47zm34.82 68.5l4.45 8.75 8.74-4.44-4.44-8.75zm12.6 24.79l5.18 10.2 8.75-4.45-5.19-10.2zm13.33 26.23l4.45 8.75 8.75-4.45-4.45-8.74zm12.6 24.78l27.42 53.93 8.74-4.45-27.41-53.93zm35.57 69.96l4.44 8.75 8.75-4.45-4.45-8.74zm12.6 24.78l5.18 10.2 8.74-4.44-5.18-10.2zm13.33 26.23l4.45 8.75 8.74-4.45-4.44-8.74zm12.6 24.78l27.41 53.93 8.75-4.44-27.42-53.93zm35.56 69.96l4.45 8.75 8.74-4.45-4.44-8.74zm12.6 24.78l5.19 10.2 8.74-4.44-5.19-10.2zm13.34 26.24l4.44 8.74 8.75-4.44-4.45-8.75zm-421.91-764.99l4.44 8.75 10.2-5.19-4.44-8.74zm12.6 24.78l5.18 10.2 10.2-5.18-5.18-10.2zm13.33 26.24l4.45 8.74 10.2-5.18-4.45-8.75zm12.6 24.77l27.41 53.93 10.2-5.18-27.4-53.93zm35.56 69.97l4.45 8.74 10.2-5.19-4.44-8.74zm12.6 24.77l5.19 10.2 10.2-5.18-5.19-10.2zm13.34 26.24l4.44 8.75 10.2-5.2-4.44-8.74zm12.6 24.78l27.41 53.93 10.2-5.19-27.41-53.93zm35.56 69.96l4.45 8.74 10.2-5.18-4.45-8.75zm12.6 24.78l5.18 10.2 10.2-5.19-5.18-10.2zm13.33 26.23l4.45 8.75 10.2-5.19-4.44-8.74zm12.6 24.78l26.67 52.47 10.2-5.18-26.67-52.48zm34.83 68.5l4.44 8.75 10.2-5.19-4.44-8.74zm12.6 24.78l5.18 10.2 10.2-5.18-5.19-10.2zm13.33 26.24l4.44 8.74 10.2-5.18-4.44-8.75zm12.6 24.78l27.41 53.93 10.2-5.2-27.41-53.92zm35.56 69.96l4.45 8.74 10.2-5.18-4.45-8.75zm12.6 24.78l5.18 10.2 10.2-5.19-5.18-10.2zm13.33 26.23l4.45 8.75 10.2-5.19-4.44-8.74zm12.6 24.78l27.42 53.93 10.2-5.19-27.42-53.93zm35.57 69.96l4.44 8.75 10.2-5.19-4.44-8.75zm12.6 24.78l5.18 10.2 10.2-5.18-5.18-10.2zm13.33 26.24l4.45 8.74 10.2-5.19-4.45-8.74zm-420.45-765.73l4.45 8.74 8.74-4.44-4.44-8.75zm12.6 24.78l5.18 10.2 8.75-4.45-5.19-10.2zm13.33 26.23l4.45 8.75 8.74-4.45-4.44-8.74zm12.6 24.78l27.42 53.93 8.74-4.45-27.41-53.92zm35.57 69.96l4.44 8.75 8.75-4.45-4.45-8.74zm12.6 24.78l5.18 10.2 8.74-4.44-5.18-10.2zm13.33 26.24l4.45 8.74 8.74-4.44-4.45-8.75zm12.6 24.77l27.41 53.93 8.75-4.44-27.42-53.93zm35.56 69.97l4.45 8.74 8.74-4.44-4.44-8.75zm12.6 24.77l5.19 10.2 8.74-4.44-5.19-10.2zm13.34 26.24l4.44 8.74 8.75-4.44-4.45-8.75zm12.6 24.78l26.67 52.47 8.74-4.45-26.67-52.47zm34.82 68.5l4.44 8.75 8.75-4.45-4.45-8.74zm12.6 24.78l5.18 10.2 8.75-4.44-5.2-10.2zm13.33 26.23l4.45 8.75 8.74-4.45-4.44-8.74zm12.6 24.78l27.41 53.93 8.75-4.44-27.42-53.93zm35.56 69.96l4.45 8.75 8.74-4.45-4.44-8.74zm12.6 24.78l5.19 10.2 8.74-4.44-5.18-10.2zm13.34 26.24l4.44 8.74 8.75-4.44-4.45-8.75zm12.6 24.78l27.4 53.92 8.75-4.44-27.41-53.93zM941 2947.5l4.45 8.74 8.74-4.44-4.45-8.75zm12.6 24.78l5.18 10.2 8.75-4.45-5.19-10.2zm13.33 26.23l4.45 8.75 8.74-4.45-4.44-8.74zM499.84 2256.5l4.45 8.74 55.38-28.15-4.44-8.75zm12.6 24.77l5.19 10.2 55.38-28.15-5.19-10.2zm13.34 26.24l4.44 8.74 55.39-28.15-4.45-8.75zm12.6 24.78l27.4 53.93 55.4-28.16-27.42-53.93zm35.56 69.96l4.44 8.74 55.39-28.15-4.45-8.75zm12.6 24.78l5.18 10.2 55.39-28.16-5.19-10.2zm13.33 26.23l4.45 8.75 55.38-28.16-4.44-8.74zm12.6 24.78l27.41 53.93 55.39-28.16-27.42-53.93zm35.56 69.96l4.45 8.75 55.39-28.16-4.45-8.74zm12.6 24.78l5.19 10.2 55.38-28.15-5.18-10.2zm13.34 26.24l4.44 8.74 55.39-28.15-4.45-8.75zm12.6 24.77l26.67 52.48 55.38-28.16-26.67-52.47zm34.82 68.5l4.45 8.75 55.38-28.15-4.45-8.75zm12.6 24.79l5.18 10.2 55.39-28.16-5.19-10.2zm13.33 26.23l4.45 8.75 55.38-28.16-4.44-8.74zm12.6 24.78l27.42 53.93 55.38-28.16-27.42-53.93zm35.57 69.96l4.44 8.75 55.39-28.16-4.45-8.74zm12.6 24.78l5.18 10.2 55.38-28.15-5.18-10.2zm13.33 26.23l4.45 8.75 55.38-28.16-4.45-8.74zm12.6 24.78l27.41 53.93 55.39-28.15-27.42-53.93zm35.56 69.96l4.45 8.75 55.38-28.16-4.44-8.74zm12.6 24.78l5.18 10.2 55.39-28.15-5.19-10.2zm13.34 26.24l4.44 8.74 55.39-28.15-4.45-8.75zm-420.46-765.73l4.45 8.75 8.75-4.45-4.45-8.74zm12.6 24.78l5.19 10.2 8.74-4.44-5.18-10.2zm13.34 26.24l4.44 8.74 8.75-4.44-4.45-8.75zm12.6 24.77l27.41 53.93 8.75-4.44-27.42-53.93zm35.56 69.97l4.45 8.74 8.74-4.45-4.44-8.74zm12.6 24.77l5.18 10.2 8.75-4.44-5.19-10.2zm13.33 26.24l4.45 8.74 8.75-4.44-4.45-8.75zm12.6 24.78l27.42 53.93 8.74-4.45-27.41-53.93zm35.57 69.96l4.44 8.74 8.75-4.44-4.45-8.75zm12.6 24.78l5.18 10.2 8.75-4.45-5.2-10.2zm13.33 26.23l4.45 8.75 8.74-4.45-4.44-8.74zm12.6 24.78l26.67 52.47 8.75-4.44-26.68-52.48zm34.82 68.5l4.45 8.75 8.74-4.45-4.44-8.74zm12.6 24.78l5.19 10.2 8.74-4.44-5.19-10.2zm13.34 26.24l4.44 8.74 8.75-4.44-4.45-8.75zm12.6 24.78l27.4 53.92 8.75-4.44-27.41-53.93zm35.56 69.96l4.44 8.74 8.75-4.44-4.45-8.75zm12.6 24.78l5.18 10.2 8.75-4.45-5.2-10.2zm13.33 26.23l4.45 8.75 8.74-4.45-4.44-8.74zm12.6 24.78l27.41 53.93 8.75-4.45-27.42-53.93zm35.56 69.96l4.45 8.75 8.74-4.45-4.44-8.75zm12.6 24.78l5.19 10.2 8.74-4.44-5.18-10.2zm13.34 26.23l4.44 8.75 8.75-4.45-4.45-8.74zm-421.91-764.98l4.45 8.74 10.2-5.18-4.45-8.75zm12.6 24.78l5.18 10.2 10.2-5.19-5.18-10.2zm13.33 26.23l4.45 8.75 10.2-5.19-4.44-8.74zm12.6 24.78l27.41 53.93 10.2-5.19-27.4-53.93zm35.57 69.96l4.44 8.75 10.2-5.19-4.44-8.74zm12.6 24.78l5.18 10.2 10.2-5.18-5.19-10.2zm13.33 26.24l4.44 8.74 10.2-5.19-4.44-8.74zm12.6 24.77l27.41 53.93 10.2-5.18-27.41-53.93zm35.56 69.97l4.45 8.74 10.2-5.19-4.45-8.74zm12.6 24.77l5.18 10.2 10.2-5.18-5.18-10.2zm13.34 26.24l4.44 8.74 10.2-5.18-4.44-8.75zm12.6 24.78l26.67 52.47 10.2-5.19-26.68-52.47zm34.82 68.5l4.44 8.75 10.2-5.19-4.44-8.75zm12.6 24.78l5.18 10.2 10.2-5.18-5.18-10.2zm13.33 26.23l4.45 8.75 10.2-5.19-4.45-8.74zm12.6 24.78l27.41 53.93 10.2-5.19-27.41-53.92zm35.56 69.96l4.45 8.75 10.2-5.19-4.44-8.74zm12.6 24.78l5.19 10.2 10.2-5.18-5.19-10.2zM770.4 2915l4.44 8.74 10.2-5.18-4.44-8.75zm12.6 24.78l27.4 53.92 10.21-5.18-27.41-53.93zm35.56 69.96l4.44 8.74 10.2-5.18-4.44-8.75zm12.6 24.78l5.18 10.2 10.2-5.19-5.18-10.2zm13.33 26.23l4.45 8.75 10.2-5.19-4.44-8.75zm-420.45-765.72l4.45 8.74 8.74-4.45-4.44-8.74zm12.6 24.77l5.18 10.2 8.75-4.44-5.19-10.2zm13.34 26.24l4.44 8.74 8.75-4.44-4.45-8.75zm12.6 24.78l27.4 53.93 8.75-4.45-27.41-53.93zm35.56 69.96l4.44 8.74 8.75-4.44-4.45-8.75zm12.6 24.78l5.18 10.2 8.75-4.45-5.2-10.2zm13.33 26.23l4.45 8.75 8.74-4.45-4.44-8.74zm12.6 24.78l27.41 53.93 8.75-4.45-27.42-53.93zm35.56 69.96l4.45 8.75 8.74-4.45-4.44-8.74zm12.6 24.78l5.19 10.2 8.74-4.44-5.18-10.2zm13.34 26.24l4.44 8.74 8.75-4.45-4.45-8.74zm12.6 24.77l26.67 52.47 8.74-4.44-26.67-52.47zm34.82 68.5l4.44 8.75 8.75-4.44-4.45-8.75zm12.6 24.79l5.18 10.2 8.75-4.45-5.19-10.2zm13.33 26.23l4.45 8.75 8.74-4.45-4.44-8.74zm12.6 24.78l27.41 53.93 8.75-4.45-27.42-53.93zm35.57 69.96l4.44 8.75 8.75-4.45-4.45-8.75zm12.6 24.78l5.18 10.2 8.74-4.44-5.18-10.2zm13.33 26.23l4.44 8.75 8.75-4.45-4.45-8.74zm12.6 24.78l27.41 53.93 8.75-4.44-27.42-53.93zm35.56 69.96l4.45 8.75 8.74-4.45-4.44-8.74zm12.6 24.78l5.18 10.2 8.75-4.44-5.19-10.2zm13.33 26.24l4.45 8.74 8.75-4.44-4.45-8.75zM354.1 2330.59l4.45 8.75 53.93-27.42-4.45-8.74zm12.6 24.78l5.18 10.2 53.93-27.41-5.18-10.2zm13.33 26.23l4.45 8.75 53.93-27.42-4.45-8.74zm12.6 24.78l27.42 53.93 53.92-27.41-27.41-53.93zm35.57 69.96l4.44 8.75 53.93-27.42-4.44-8.74zm12.6 24.78l5.18 10.2 53.93-27.41-5.19-10.2zm13.33 26.24l4.45 8.74 53.92-27.41-4.44-8.75zm12.6 24.78l27.41 53.92 53.93-27.41-27.41-53.93zm35.56 69.96l4.45 8.74 53.93-27.41-4.45-8.75zm12.6 24.78l5.19 10.2 53.92-27.42-5.18-10.2zm13.34 26.23l4.44 8.75 53.93-27.42-4.44-8.74zm12.6 24.78l26.67 52.47 53.93-27.42-26.68-52.47zm34.82 68.5l4.44 8.75 53.93-27.42-4.44-8.74zm12.6 24.78l5.18 10.2 53.93-27.41-5.19-10.2zm13.33 26.24l4.45 8.74 53.93-27.41-4.45-8.75zm12.6 24.77l27.41 53.93 53.93-27.41-27.41-53.93zm35.56 69.97l4.45 8.74 53.93-27.41-4.45-8.75zm12.6 24.77l5.19 10.2 53.93-27.4-5.2-10.21zm13.34 26.24l4.44 8.74 53.93-27.41-4.44-8.75zm12.6 24.78l27.41 53.93 53.93-27.42-27.42-53.93zm35.56 69.96l4.45 8.74 53.92-27.41-4.44-8.75zm12.6 24.78l5.18 10.2 53.93-27.42-5.19-10.2zm13.33 26.23l4.45 8.75 53.93-27.42-4.45-8.74zM329.31 2343.2l4.45 8.74 8.74-4.44-4.44-8.75zm12.6 24.78l5.19 10.2 8.74-4.45-5.18-10.2zm13.34 26.23l4.44 8.75 8.75-4.45-4.45-8.74zm12.6 24.78l27.4 53.93 8.75-4.45-27.41-53.93zm35.56 69.96l4.45 8.75 8.74-4.45-4.45-8.75zm12.6 24.78l5.18 10.2 8.75-4.44-5.19-10.2zm13.33 26.23l4.45 8.75 8.74-4.45-4.44-8.74zm12.6 24.78l27.42 53.93 8.74-4.45-27.42-53.92zm35.57 69.96l4.44 8.75 8.75-4.45-4.45-8.74zm12.6 24.78l5.18 10.2 8.74-4.44-5.18-10.2zm13.33 26.24l4.45 8.74 8.74-4.44-4.45-8.75zm12.6 24.78l26.67 52.47 8.75-4.45-26.68-52.47zm34.82 68.5l4.45 8.74 8.74-4.44-4.44-8.75zm12.6 24.78l5.18 10.2 8.75-4.45-5.19-10.2zm13.33 26.23l4.45 8.75 8.75-4.45-4.45-8.74zm12.6 24.78l27.42 53.93 8.74-4.45-27.41-53.92zm35.57 69.96l4.44 8.75 8.75-4.45-4.45-8.74zm12.6 24.78l5.18 10.2 8.74-4.44-5.18-10.2zm13.33 26.24l4.45 8.74 8.74-4.44-4.44-8.75zm12.6 24.77l27.41 53.93 8.75-4.44-27.42-53.93zm35.56 69.97l4.45 8.74 8.74-4.44-4.44-8.75zm12.6 24.77l5.19 10.2 8.74-4.44-5.19-10.2zm13.34 26.24l4.44 8.74 8.75-4.44-4.45-8.75zm-421.91-764.99l4.44 8.75 10.2-5.19-4.44-8.74zm12.6 24.78l5.18 10.2 10.2-5.18-5.18-10.2zm13.33 26.24l4.45 8.74 10.2-5.18-4.45-8.75zm12.6 24.78l27.41 53.92 10.2-5.18-27.4-53.93zm35.56 69.96l4.45 8.74 10.2-5.18-4.44-8.75zm12.6 24.78l5.19 10.2 10.2-5.19-5.19-10.2zm13.34 26.23l4.44 8.75 10.2-5.19-4.44-8.75zm12.6 24.78l27.41 53.93 10.2-5.19-27.41-53.93zm35.56 69.96l4.45 8.75 10.2-5.2-4.45-8.74zm12.6 24.78l5.18 10.2 10.2-5.19-5.18-10.2zm13.33 26.23l4.45 8.75 10.2-5.19-4.44-8.74zm12.6 24.78l26.68 52.47 10.2-5.18-26.68-52.47zm34.83 68.5l4.44 8.75 10.2-5.19-4.44-8.74zm12.6 24.78l5.18 10.2 10.2-5.18-5.19-10.2zm13.33 26.24l4.45 8.75 10.2-5.2-4.45-8.74zm12.6 24.78l27.41 53.93 10.2-5.19-27.41-53.93zm35.56 69.96l4.45 8.74 10.2-5.18-4.45-8.75zm12.6 24.78l5.18 10.2 10.2-5.19-5.18-10.2zm13.34 26.23l4.44 8.75 10.2-5.19-4.44-8.74zm12.6 24.78l27.4 53.93 10.21-5.19-27.42-53.93zm35.56 69.96l4.44 8.75 10.2-5.19-4.44-8.74zm12.6 24.78l5.18 10.2 10.2-5.18-5.18-10.2zm13.33 26.24l4.45 8.74 10.2-5.19-4.45-8.74zM278.3 2369.12l4.45 8.75 8.74-4.45-4.44-8.75zm12.6 24.78l5.18 10.2 8.75-4.44-5.19-10.2zm13.33 26.23l4.45 8.75 8.75-4.45-4.45-8.74zm12.6 24.78l27.42 53.93 8.74-4.45-27.41-53.92zm35.57 69.96l4.44 8.75 8.75-4.45-4.45-8.74zm12.6 24.78l5.18 10.2 8.75-4.44-5.2-10.2zm13.33 26.24l4.45 8.74 8.74-4.44-4.44-8.75zm12.6 24.78l27.41 53.92 8.75-4.44-27.42-53.93zm35.56 69.96l4.45 8.74 8.74-4.44-4.44-8.75zm12.6 24.77l5.19 10.2 8.74-4.44-5.19-10.2zm13.34 26.24l4.44 8.75 8.75-4.45-4.45-8.75zm12.6 24.78l26.67 52.47 8.74-4.45-26.67-52.47zm34.82 68.5l4.44 8.75 8.75-4.45-4.45-8.74zm12.6 24.78l5.18 10.2 8.75-4.44-5.2-10.2zm13.33 26.24l4.45 8.74 8.74-4.44-4.44-8.75zm12.6 24.77l27.41 53.93 8.75-4.44-27.42-53.93zm35.56 69.97l4.45 8.74 8.74-4.45-4.44-8.74zm12.6 24.77l5.19 10.2 8.74-4.44-5.18-10.2zm13.34 26.24l4.44 8.74 8.75-4.44-4.45-8.75zm12.6 24.78l27.41 53.93 8.74-4.45-27.41-53.93zm35.56 69.96l4.45 8.74 8.74-4.44-4.44-8.75zm12.6 24.78l5.18 10.2 8.75-4.45-5.19-10.2zm13.33 26.23l4.45 8.75 8.74-4.45-4.44-8.74zM208.34 2404.7l4.45 8.74 53.92-27.41-4.44-8.75zm12.6 24.77l5.18 10.2 53.93-27.4-5.19-10.21zm13.33 26.24l4.45 8.74 53.93-27.41-4.45-8.75zm12.6 24.78l27.42 53.93 53.92-27.42-27.41-53.93zm35.57 69.96l4.44 8.74 53.93-27.41-4.45-8.75zm12.6 24.78l5.18 10.2 53.93-27.42-5.19-10.2zm13.33 26.23l4.45 8.75 53.92-27.42-4.44-8.74zm12.6 24.78l27.41 53.93 53.93-27.42-27.42-53.92zm35.56 69.96l4.45 8.75 53.93-27.42-4.45-8.74zm12.6 24.78l5.19 10.2 53.92-27.41-5.18-10.2zm13.34 26.24l4.44 8.74 53.93-27.41-4.45-8.75zm12.6 24.77l26.67 52.48 53.92-27.42-26.67-52.47zm34.82 68.5l4.44 8.75 53.93-27.41-4.44-8.75zm12.6 24.79l5.18 10.2 53.93-27.42-5.19-10.2zm13.33 26.23l4.45 8.75 53.92-27.42-4.44-8.74zm12.6 24.78l27.41 53.93 53.93-27.42-27.41-53.93zm35.56 69.96l4.45 8.75 53.93-27.42-4.45-8.74zm12.6 24.78l5.19 10.2 53.92-27.41-5.18-10.2zm13.34 26.23l4.44 8.75 53.93-27.42-4.45-8.74zm12.6 24.78l27.4 53.93 53.94-27.41-27.42-53.93zm35.56 69.96l4.45 8.75 53.92-27.42-4.44-8.74zm12.6 24.78l5.18 10.2 53.93-27.41-5.19-10.2zm13.33 26.24l4.45 8.74 53.93-27.41-4.45-8.75zm-420.45-765.73l4.45 8.75 8.74-4.45-4.44-8.74zm12.6 24.78l5.19 10.2 8.74-4.44-5.19-10.2zm13.34 26.24l4.44 8.74 8.75-4.44-4.45-8.75zm12.6 24.77l27.4 53.93 8.75-4.44-27.41-53.93zm35.56 69.97l4.44 8.74 8.75-4.45-4.45-8.74zm12.6 24.77l5.18 10.2 8.75-4.44-5.19-10.2zm13.33 26.24l4.45 8.74 8.74-4.44-4.44-8.75zm12.6 24.78l27.41 53.93 8.75-4.45-27.42-53.93zm35.56 69.96l4.45 8.74 8.75-4.44-4.45-8.75zm12.6 24.78l5.19 10.2 8.74-4.45-5.18-10.2zm13.34 26.23l4.44 8.75 8.75-4.45-4.45-8.74zm12.6 24.78l26.67 52.47 8.74-4.44-26.67-52.48zm34.82 68.5l4.45 8.75 8.74-4.45-4.45-8.74zm12.6 24.78l5.18 10.2 8.75-4.44-5.19-10.2zm13.33 26.24l4.45 8.74 8.74-4.44-4.44-8.75zm12.6 24.78l27.42 53.92 8.74-4.44-27.42-53.93zm35.57 69.96l4.44 8.74 8.75-4.44-4.45-8.75zm12.6 24.78l5.18 10.2 8.74-4.45-5.18-10.2zm13.33 26.23l4.45 8.75 8.74-4.45-4.45-8.74zm12.6 24.78l27.41 53.93 8.75-4.45-27.42-53.93zm35.56 69.96l4.45 8.75 8.74-4.45-4.44-8.75zm12.6 24.78l5.18 10.2 8.75-4.44-5.19-10.2zm13.34 26.23l4.44 8.75 8.75-4.45-4.45-8.74zm-421.91-764.98l4.44 8.74 10.2-5.18-4.44-8.75zm12.6 24.78l5.18 10.2 10.2-5.19-5.18-10.2zm13.33 26.23l4.45 8.75 10.2-5.19-4.45-8.74zm12.6 24.78l27.41 53.93 10.2-5.19-27.41-53.93zm35.56 69.96l4.45 8.75 10.2-5.19-4.44-8.74zm12.6 24.78l5.19 10.2 10.2-5.18-5.19-10.2zm13.34 26.24l4.44 8.74 10.2-5.19-4.44-8.74zm12.6 24.77l27.4 53.93 10.21-5.18-27.41-53.93zm35.56 69.97l4.45 8.74 10.2-5.19-4.45-8.74zm12.6 24.77l5.18 10.2 10.2-5.18-5.18-10.2zm13.33 26.24l4.45 8.74 10.2-5.18-4.44-8.75zm12.6 24.78l26.67 52.47 10.2-5.19-26.67-52.47zm34.82 68.5l4.45 8.75 10.2-5.19-4.44-8.75zm12.6 24.78l5.19 10.2 10.2-5.18-5.19-10.2zm13.34 26.23l4.44 8.75 10.2-5.19-4.44-8.74zm12.6 24.78l27.41 53.93 10.2-5.19-27.41-53.92zm35.56 69.96l4.45 8.75 10.2-5.19-4.45-8.74zm12.6 24.78l5.18 10.2 10.2-5.18-5.18-10.2zm13.33 26.24l4.45 8.74 10.2-5.18-4.44-8.75zm12.6 24.78l27.42 53.92 10.2-5.18-27.42-53.93zm35.57 69.96l4.44 8.74 10.2-5.18-4.44-8.75zm12.6 24.78l5.18 10.2 10.2-5.19-5.18-10.2zm13.33 26.23l4.45 8.75 10.2-5.19-4.45-8.75zm-420.45-765.72l4.45 8.74 8.74-4.45-4.45-8.74zm12.6 24.77l5.18 10.2 8.75-4.44-5.19-10.2zm13.33 26.24l4.45 8.74 8.74-4.44-4.44-8.75zm12.6 24.78l27.42 53.93 8.74-4.45-27.42-53.93zm35.57 69.96l4.44 8.74 8.75-4.44-4.45-8.75zm12.6 24.78l5.18 10.2 8.74-4.45-5.18-10.2zm13.33 26.23l4.45 8.75 8.74-4.45-4.45-8.74zm12.6 24.78l27.41 53.93 8.75-4.45-27.42-53.93zm35.56 69.96l4.45 8.75 8.74-4.45-4.44-8.74zm12.6 24.78l5.18 10.2 8.75-4.44-5.19-10.2zm13.34 26.24l4.44 8.74 8.75-4.45-4.45-8.74zm12.6 24.77l26.67 52.47 8.74-4.44-26.67-52.47zm34.82 68.5l4.44 8.75 8.75-4.44-4.45-8.75zm12.6 24.79l5.18 10.2 8.75-4.45-5.2-10.2zm13.33 26.23l4.45 8.75 8.74-4.45-4.44-8.74zm12.6 24.78l27.41 53.93 8.75-4.45-27.42-53.93zm35.56 69.96l4.45 8.75 8.74-4.45-4.44-8.75zm12.6 24.78l5.19 10.2 8.74-4.44-5.19-10.2zm13.34 26.23l4.44 8.75 8.75-4.45-4.45-8.74zm12.6 24.78l27.4 53.93 8.75-4.44-27.41-53.93zm35.56 69.96l4.44 8.75 8.75-4.45-4.45-8.74zm12.6 24.78l5.18 10.2 8.75-4.44-5.19-10.2zm13.33 26.24l4.45 8.74 8.74-4.44-4.44-8.75zm-464.17-743.5l4.44 8.75 52.47-26.68-4.44-8.74zm12.6 24.78l5.18 10.2 52.47-26.67-5.19-10.2zm13.33 26.23l4.45 8.75 52.47-26.68-4.45-8.74zm12.6 24.78l27.41 53.93 52.47-26.67-27.41-53.93zm35.56 69.96l4.45 8.75 52.47-26.68-4.45-8.74zm12.6 24.78l5.19 10.2 52.47-26.67-5.19-10.2zm13.34 26.24l4.44 8.74 52.47-26.67-4.44-8.75zm12.6 24.77l27.4 53.93 52.48-26.67-27.42-53.93zm35.56 69.97l4.44 8.74 52.47-26.67-4.44-8.75zm12.6 24.77l5.18 10.2 52.47-26.67-5.18-10.2zm13.33 26.24l4.45 8.75 52.47-26.68-4.45-8.74zm12.6 24.78l26.67 52.47 52.47-26.68-26.67-52.47zm34.82 68.5l4.45 8.75 52.47-26.68-4.45-8.74zm12.6 24.78l5.19 10.2 52.47-26.67-5.19-10.2zm13.34 26.24l4.44 8.74 52.47-26.67-4.44-8.75zm12.6 24.77l27.4 53.93 52.48-26.67-27.42-53.93zm35.56 69.97l4.45 8.74 52.47-26.67-4.45-8.75zm12.6 24.77l5.18 10.2 52.47-26.67-5.18-10.2zm13.33 26.24l4.45 8.74 52.47-26.67-4.45-8.75zm12.6 24.78l27.42 53.93 52.47-26.68-27.42-53.93zm35.57 69.96l4.44 8.74 52.47-26.67-4.44-8.75zm12.6 24.78l5.18 10.2 52.47-26.68-5.19-10.2zm13.33 26.23l4.45 8.75 52.47-26.68-4.45-8.74zM39.27 2490.64l4.44 8.74 8.75-4.44-4.45-8.75zm12.6 24.77l5.18 10.2 8.75-4.44-5.19-10.2zm13.33 26.24l4.45 8.74 8.74-4.44-4.44-8.75zm12.6 24.78l27.41 53.93 8.75-4.45-27.42-53.93zm35.57 69.96l4.44 8.74 8.75-4.44-4.45-8.75zm12.6 24.78l5.18 10.2 8.74-4.45-5.18-10.2zm13.33 26.23l4.44 8.75 8.75-4.45-4.45-8.74zm12.6 24.78l27.41 53.93 8.75-4.45-27.42-53.92zm35.56 69.96l4.45 8.75 8.74-4.45-4.44-8.74zm12.6 24.78l5.18 10.2 8.75-4.44-5.19-10.2zm13.33 26.24l4.45 8.74 8.75-4.44-4.45-8.75zm12.6 24.77l26.68 52.48 8.74-4.45-26.67-52.47zm34.83 68.5l4.44 8.75 8.75-4.44-4.45-8.75zm12.6 24.79l5.18 10.2 8.74-4.45-5.18-10.2zm13.33 26.23l4.45 8.75 8.74-4.45-4.45-8.74zm12.6 24.78l27.41 53.93 8.75-4.45-27.42-53.93zm35.56 69.96l4.45 8.75 8.74-4.45-4.44-8.74zm12.6 24.78l5.19 10.2 8.74-4.44-5.19-10.2zm13.34 26.23l4.44 8.75 8.75-4.45-4.45-8.74zm12.6 24.78l27.4 53.93 8.75-4.44-27.41-53.93zm35.56 69.96l4.44 8.75 8.75-4.45-4.45-8.74zm12.6 24.78l5.18 10.2 8.75-4.44-5.19-10.2zm13.33 26.24l4.45 8.74 8.74-4.44-4.44-8.75zm-421.9-764.99l4.44 8.75 10.2-5.19-4.44-8.74zm12.59 24.78l5.19 10.2 10.2-5.18-5.19-10.2zM38.97 2555l4.44 8.74 10.2-5.18-4.44-8.75zm12.6 24.77l27.4 53.93 10.21-5.18-27.41-53.93zm35.56 69.97l4.45 8.74 10.2-5.19-4.45-8.74zm12.6 24.77l5.18 10.2 10.2-5.18-5.18-10.2zm13.33 26.24l4.45 8.75 10.2-5.2-4.44-8.74zm12.6 24.78l27.42 53.93 10.2-5.19-27.42-53.93zm35.57 69.96l4.44 8.74 10.2-5.18-4.44-8.75zm12.6 24.78l5.18 10.2 10.2-5.19-5.18-10.2zm13.33 26.23l4.45 8.75 10.2-5.19-4.45-8.74zm12.6 24.78l26.67 52.47 10.2-5.18-26.67-52.48zm34.82 68.5l4.45 8.75 10.2-5.19-4.45-8.74zm12.6 24.78l5.18 10.2 10.2-5.18-5.18-10.2zm13.33 26.24l4.45 8.74 10.2-5.18-4.44-8.75zm12.6 24.78l27.42 53.93 10.2-5.2-27.42-53.92zm35.57 69.96l4.44 8.74 10.2-5.18-4.44-8.75zm12.6 24.78l5.18 10.2 10.2-5.19-5.18-10.2zm13.33 26.23l4.45 8.75 10.2-5.19-4.45-8.74zm12.6 24.78l27.41 53.93 10.2-5.19-27.41-53.93zm35.56 69.96l4.45 8.75 10.2-5.19-4.44-8.75zm12.6 24.78l5.19 10.2 10.2-5.18-5.19-10.2zm13.34 26.24l4.44 8.74 10.2-5.19-4.44-8.74zm-420.45-765.73l4.44 8.74 8.75-4.44-4.45-8.75zm12.6 24.78l5.18 10.2 8.74-4.45-5.18-10.2zm13.33 26.23l4.45 8.75 8.74-4.45-4.45-8.74zm12.6 24.78l27.41 53.93 8.75-4.45-27.42-53.92zm35.56 69.96l4.45 8.75 8.74-4.45-4.44-8.74zm12.6 24.78l5.19 10.2 8.74-4.44-5.19-10.2zm13.34 26.24l4.44 8.74 8.75-4.44-4.45-8.75zm12.6 24.77l27.4 53.93 8.75-4.44-27.41-53.93zm35.56 69.97l4.44 8.74 8.75-4.44-4.45-8.75zm12.6 24.77l5.18 10.2 8.75-4.44-5.19-10.2zm13.33 26.24l4.45 8.74 8.74-4.44-4.44-8.75zm12.6 24.78l26.67 52.47 8.75-4.45-26.68-52.47zm34.82 68.5l4.45 8.75 8.74-4.45-4.44-8.74zm12.6 24.78l5.19 10.2 8.74-4.44-5.19-10.2zm13.34 26.23l4.44 8.75 8.75-4.45-4.45-8.74zm12.6 24.78l27.4 53.93 8.75-4.44-27.41-53.93zm35.56 69.96l4.45 8.75 8.74-4.45-4.45-8.74zm12.6 24.78l5.18 10.2 8.75-4.44-5.19-10.2zm13.33 26.24l4.45 8.74 8.74-4.44-4.44-8.75zm12.6 24.78l27.42 53.92 8.74-4.44-27.42-53.93zm35.57 69.96l4.44 8.74 8.75-4.44-4.45-8.75zm12.6 24.78l5.18 10.2 8.74-4.45-5.18-10.2zm13.33 26.23l4.44 8.75 8.75-4.45-4.45-8.74zM-81.7 2552.14l4.44 8.74 53.93-27.41-4.45-8.75zm12.6 24.77l5.18 10.2 53.93-27.4-5.19-10.21zm13.33 26.24l4.45 8.74 53.92-27.41-4.44-8.75zm12.6 24.78l27.41 53.93 53.93-27.42-27.42-53.93zm35.56 69.96l4.45 8.74 53.93-27.41-4.45-8.75zM5 2722.67l5.18 10.2 53.93-27.42-5.18-10.2zm13.34 26.23l4.44 8.75 53.93-27.42-4.45-8.74zm12.6 24.78l27.4 53.93 53.94-27.42-27.42-53.93zm35.56 69.96l4.44 8.75 53.93-27.42-4.44-8.74zm12.6 24.78l5.18 10.2 53.93-27.41L133 2841zm13.33 26.24l4.45 8.74 53.92-27.42-4.44-8.74zm12.6 24.77l26.67 52.47 53.93-27.41-26.67-52.47zm34.82 68.5l4.45 8.75 53.93-27.41-4.45-8.75zm12.6 24.79l5.19 10.2 53.92-27.42-5.18-10.2zm13.34 26.23l4.44 8.75 53.93-27.42-4.45-8.74zm12.6 24.78l27.4 53.93 53.94-27.42-27.42-53.93zm35.56 69.96l4.44 8.75 53.93-27.42-4.44-8.74zm12.6 24.78l5.18 10.2 53.93-27.41-5.19-10.2zm13.33 26.23l4.45 8.75 53.93-27.42-4.45-8.74zm12.6 24.78l27.41 53.93 53.93-27.41-27.41-53.93zm35.56 69.96l4.45 8.75 53.93-27.42-4.45-8.74zm12.6 24.78l5.19 10.2 53.93-27.41-5.2-10.2zm13.34 26.24l4.44 8.74 53.93-27.41-4.44-8.75zm-420.45-765.73l4.44 8.75 8.75-4.45-4.45-8.74zm12.6 24.78l5.18 10.2 8.75-4.44-5.19-10.2zm13.33 26.23l4.45 8.75 8.74-4.45-4.44-8.74zm12.6 24.78l27.41 53.93 8.75-4.44-27.42-53.93zm35.56 69.96l4.45 8.75 8.74-4.45-4.44-8.74zm12.6 24.78l5.19 10.2 8.74-4.44-5.18-10.2zm13.34 26.24l4.44 8.74 8.75-4.44-4.45-8.75zm12.6 24.78l27.4 53.92 8.75-4.44-27.41-53.93zm35.56 69.96l4.45 8.74 8.74-4.44-4.44-8.75zm12.6 24.78l5.18 10.2 8.75-4.45-5.19-10.2zm13.33 26.23l4.45 8.75 8.74-4.45-4.44-8.74zm12.6 24.78l26.67 52.47 8.75-4.45-26.67-52.47zm34.83 68.5l4.44 8.75 8.75-4.45-4.45-8.74zm12.6 24.78l5.18 10.2 8.74-4.44-5.18-10.2zm13.33 26.24l4.44 8.74 8.75-4.44-4.45-8.75zm12.6 24.77l27.41 53.93 8.75-4.44-27.42-53.93zm35.56 69.97l4.45 8.74 8.74-4.44-4.44-8.75zm12.6 24.77l5.18 10.2 8.75-4.44-5.19-10.2zm13.33 26.24l4.45 8.75 8.75-4.45-4.45-8.75zm12.6 24.78l27.42 53.93 8.74-4.45-27.41-53.93zm35.57 69.96l4.44 8.74 8.75-4.44-4.45-8.75zm12.6 24.78l5.18 10.2 8.75-4.45-5.2-10.2zm13.33 26.23l4.45 8.75 8.74-4.45-4.44-8.74zm-421.9-764.98l4.44 8.74 10.2-5.18-4.44-8.75zm12.59 24.78l5.19 10.2 10.2-5.19-5.19-10.2zm13.34 26.23l4.44 8.75 10.2-5.19-4.44-8.74zm12.6 24.78l27.4 53.93 10.21-5.19-27.41-53.93zm35.56 69.96l4.44 8.75 10.2-5.19-4.44-8.75zm12.6 24.78l5.18 10.2 10.2-5.18-5.18-10.2zm13.33 26.23l4.45 8.75 10.2-5.19-4.45-8.74zm12.6 24.78l27.41 53.93 10.2-5.19-27.4-53.92zm35.56 69.96l4.45 8.75 10.2-5.19-4.44-8.74zm12.6 24.78l5.19 10.2 10.2-5.18-5.19-10.2zm13.34 26.24l4.44 8.74 10.2-5.18-4.44-8.75zm12.6 24.78l26.67 52.47 10.2-5.19-26.67-52.47zm34.82 68.5l4.45 8.75 10.2-5.2-4.45-8.74zm12.6 24.78l5.18 10.2 10.2-5.19-5.18-10.2zm13.33 26.23l4.45 8.75 10.2-5.19-4.44-8.74zm12.6 24.78l27.42 53.93 10.2-5.19-27.42-53.92zm35.57 69.96l4.44 8.75 10.2-5.19-4.44-8.74zm12.6 24.78l5.18 10.2 10.2-5.18-5.19-10.2zm13.33 26.24l4.45 8.74 10.2-5.18-4.45-8.75zm12.6 24.78l27.41 53.92 10.2-5.18-27.41-53.93zm35.56 69.96l4.45 8.74 10.2-5.18-4.45-8.75zm12.6 24.77l5.19 10.2 10.2-5.18-5.19-10.2zm13.34 26.24l4.44 8.75 10.2-5.2-4.44-8.74zm-420.45-765.73l4.44 8.75 8.75-4.45-4.45-8.74zm12.6 24.78l5.18 10.2 8.74-4.44-5.18-10.2zm13.33 26.24l4.44 8.74 8.75-4.44-4.45-8.75zm12.6 24.78l27.41 53.92 8.75-4.44-27.42-53.93zm35.56 69.96l4.45 8.74 8.74-4.44-4.44-8.75zm12.6 24.78l5.18 10.2 8.75-4.45-5.19-10.2zm13.33 26.23l4.45 8.75 8.75-4.45-4.45-8.74zm12.6 24.78l27.42 53.93 8.74-4.45-27.41-53.93zm35.57 69.96l4.44 8.75 8.75-4.45-4.45-8.75zm12.6 24.78l5.18 10.2 8.75-4.44-5.2-10.2zm13.33 26.23l4.45 8.75 8.74-4.45-4.44-8.74zm12.6 24.78l26.67 52.47 8.75-4.44-26.68-52.47zm34.82 68.5l4.45 8.75 8.74-4.44-4.44-8.75zm12.6 24.78l5.19 10.2 8.74-4.44-5.19-10.2zm13.34 26.24l4.44 8.75 8.75-4.45-4.45-8.75zm12.6 24.78l27.4 53.93 8.75-4.45-27.41-53.93zm35.56 69.96l4.44 8.74 8.75-4.44-4.45-8.75zm12.6 24.78l5.18 10.2 8.75-4.45-5.19-10.2zm13.33 26.23l4.45 8.75 8.74-4.45-4.44-8.74zm12.6 24.78l27.41 53.93 8.75-4.45-27.42-53.92zm35.56 69.96l4.45 8.75 8.75-4.45-4.45-8.74zm12.6 24.78l5.19 10.2 8.74-4.44-5.18-10.2zm13.34 26.24l4.44 8.74 8.75-4.44-4.45-8.75zm-465.64-742.76l4.45 8.75 53.93-27.42-4.45-8.75zm12.6 24.78l5.19 10.2 53.93-27.41-5.2-10.2zm13.34 26.23l4.44 8.75 53.93-27.42-4.44-8.74zm12.6 24.78l27.41 53.93 53.93-27.42-27.42-53.92zm35.56 69.96l4.45 8.75L-95 2753.3l-4.44-8.74zm12.6 24.78l5.18 10.2 53.93-27.41-5.19-10.2zm13.33 26.24l4.45 8.74 53.93-27.41-4.45-8.75zm12.6 24.77l27.42 53.93 53.92-27.41-27.41-53.93zm35.57 69.97l4.44 8.74 53.93-27.41-4.45-8.75zm12.6 24.77l5.18 10.2 53.93-27.4-5.19-10.21zm13.33 26.24l4.45 8.74 53.92-27.41-4.44-8.75zm12.6 24.78l26.67 52.47 53.93-27.42-26.68-52.47zm34.82 68.5l4.45 8.75 53.93-27.42-4.45-8.74zm12.6 24.78l5.19 10.2 53.92-27.41-5.18-10.2zm13.34 26.24l4.44 8.74 53.93-27.41-4.45-8.75zm12.6 24.77l27.4 53.93 53.94-27.41-27.42-53.93zm35.56 69.97l4.44 8.74 53.93-27.42-4.44-8.74zm12.6 24.77l5.18 10.2 53.93-27.4-5.19-10.21zm13.33 26.24l4.45 8.74 53.93-27.41-4.45-8.75zm12.6 24.78l27.41 53.93 53.93-27.42-27.41-53.93zm35.56 69.96l4.45 8.74 53.93-27.41-4.45-8.75zm12.6 24.78l5.19 10.2 53.92-27.42-5.18-10.2zm13.34 26.23l4.44 8.75 53.93-27.42-4.44-8.74zm-420.45-765.72l4.44 8.74 8.75-4.44-4.45-8.75zm12.6 24.77l5.18 10.2 8.75-4.44-5.2-10.2zm13.33 26.24l4.45 8.74 8.74-4.44-4.44-8.75zm12.6 24.78l27.41 53.93 8.75-4.45-27.42-53.93zm35.56 69.96l4.45 8.74 8.74-4.44-4.44-8.75zm12.6 24.78l5.19 10.2 8.74-4.45-5.19-10.2zm13.34 26.23l4.44 8.75 8.75-4.45-4.45-8.74zm12.6 24.78l27.4 53.93 8.75-4.45-27.41-53.92zm35.56 69.96l4.44 8.75 8.75-4.45-4.45-8.74zm12.6 24.78l5.18 10.2 8.75-4.44-5.19-10.2zm13.33 26.24l4.45 8.74 8.74-4.44-4.44-8.75zm12.6 24.77l26.67 52.48 8.75-4.45-26.68-52.47zm34.82 68.5l4.45 8.75 8.74-4.44-4.44-8.75zm12.6 24.79l5.19 10.2 8.74-4.45-5.18-10.2zm13.34 26.23l4.44 8.75 8.75-4.45-4.45-8.74zm12.6 24.78l27.41 53.93 8.74-4.45-27.41-53.93zm35.56 69.96l4.45 8.75 8.74-4.45-4.44-8.74zm12.6 24.78l5.18 10.2 8.75-4.44-5.19-10.2zm13.33 26.23l4.45 8.75 8.74-4.45-4.44-8.74zm12.6 24.78l27.42 53.93 8.74-4.44-27.41-53.93zm35.57 69.96l4.44 8.75 8.75-4.45-4.45-8.74zm12.6 24.78l5.18 10.2 8.74-4.44-5.18-10.2zm13.33 26.24l4.45 8.74 8.74-4.44-4.45-8.75zm-421.9-764.99l4.44 8.75 10.2-5.19-4.45-8.74zm12.59 24.78l5.18 10.2 10.2-5.18-5.18-10.2zm13.34 26.24l4.44 8.74 10.2-5.18-4.44-8.75zm12.6 24.77l27.4 53.93 10.21-5.18-27.42-53.93zm35.56 69.97l4.44 8.74 10.2-5.19-4.44-8.74zm12.6 24.77l5.18 10.2 10.2-5.18-5.18-10.2zm13.33 26.24l4.45 8.75 10.2-5.2-4.45-8.74zm12.6 24.78l27.41 53.93 10.2-5.19-27.41-53.93zm35.56 69.96l4.45 8.74 10.2-5.18-4.44-8.75zm12.6 24.78l5.19 10.2 10.2-5.19-5.19-10.2zm13.34 26.23l4.44 8.75 10.2-5.19-4.44-8.74zm12.6 24.78l26.67 52.47 10.2-5.18-26.67-52.48zm34.82 68.5l4.44 8.75 10.2-5.19-4.44-8.74zm12.6 24.78l5.18 10.2 10.2-5.18-5.18-10.2zm13.33 26.24l4.45 8.74 10.2-5.18-4.44-8.75zm12.6 24.78l27.41 53.93 10.2-5.2-27.4-53.92zm35.57 69.96l4.44 8.74 10.2-5.18-4.44-8.75zm12.6 24.78l5.18 10.2 10.2-5.19-5.19-10.2zm13.33 26.23l4.44 8.75 10.2-5.19-4.44-8.74zm12.6 24.78l27.41 53.93 10.2-5.19-27.41-53.93zm35.56 69.96l4.45 8.75 10.2-5.19-4.45-8.75zm12.6 24.78l5.18 10.2 10.2-5.18-5.18-10.2zm13.33 26.24l4.45 8.74 10.2-5.19-4.44-8.74zm-420.45-765.73l4.45 8.74 8.74-4.44-4.44-8.75zm12.6 24.78l5.19 10.2 8.74-4.45-5.18-10.2zm13.34 26.23l4.44 8.75 8.75-4.45-4.45-8.74zm12.6 24.78l27.4 53.93 8.75-4.45-27.41-53.92zm35.56 69.96l4.45 8.75 8.74-4.45-4.44-8.74zm12.6 24.78l5.18 10.2 8.75-4.44-5.19-10.2zm13.33 26.24l4.45 8.74 8.74-4.44-4.44-8.75zm12.6 24.77l27.42 53.93 8.74-4.44-27.41-53.93zm35.57 69.97l4.44 8.74 8.75-4.44-4.45-8.75zm12.6 24.77l5.18 10.2 8.74-4.44-5.18-10.2zm13.33 26.24l4.45 8.74 8.74-4.44-4.45-8.75zm12.6 24.78l26.67 52.47 8.75-4.45-26.68-52.47zm34.82 68.5l4.45 8.75 8.74-4.45-4.44-8.74zm12.6 24.78l5.18 10.2 8.75-4.44-5.19-10.2zm13.33 26.23l4.45 8.75 8.75-4.45-4.45-8.74zm12.6 24.78l27.42 53.93 8.74-4.44-27.41-53.93zm35.57 69.96l4.44 8.75 8.75-4.45-4.45-8.74zM5 3271.1l5.18 10.2 8.75-4.44-5.2-10.2zm13.33 26.24l4.45 8.74 8.74-4.44-4.44-8.75zm12.6 24.78l27.41 53.92 8.75-4.44-27.42-53.93zm35.56 69.96l4.45 8.74 8.74-4.44-4.44-8.75zm12.6 24.78l5.19 10.2 8.74-4.45-5.19-10.2zm13.34 26.23l4.44 8.75 8.75-4.45-4.45-8.74z"/></defs><g><g clip-path="url(#clip-1541)" opacity=".57" transform="translate(69 -2345)"><use fill="#f2efef" xlink:href="#d1yga"/></g></g></svg>