<svg xmlns="http://www.w3.org/2000/svg" xmlns:xlink="http://www.w3.org/1999/xlink" width="84" height="88" viewBox="0 0 84 88"><defs><path id="ub6la" d="M505.3 3039.07h19.27V3083H505.3zm4.53 8.6a5.07 5.07 0 0 0 5.1 5.04c2.81 0 5.1-2.26 5.1-5.05s-2.29-5.05-5.1-5.05a5.08 5.08 0 0 0-5.1 5.05zm78.06-1.3c2.3 3.12-1.04 5.68-1.04 5.68-2.27 2.15-.85 4.66-.85 4.66 2.7 5.51-2.84 8.98-2.84 8.98-1.9 1.42-1.18 3.88-1.18 3.88.8 3.74-3.08 6.59-3.08 6.59-4.42 3.4-18.92 3.06-18.92 3.06-7.15 0-18.13-2.58-18.13-2.58-6-2.08-11.67-1.86-13.43-1.83v-33.19c5.28-.15 8.43-9.7 8.43-9.7 2.37-8.4 13.8-19.32 13.8-19.32 4.05-5.67 2.96-6.1 3.9-13.43.95-7.33 6.96-2.3 6.96-2.3 11.82 11.2 1.38 22.7 1.38 22.7-4.7 5.6-3.7 8.55-3.7 8.55 1.48 3.88 14.28 1.22 14.28 1.22 20.73-3.76 14.42 11.35 14.42 11.35-1.54 3 0 5.68 0 5.68z"/></defs><g><g transform="translate(-505 -2995)"><use fill="#27366d" xlink:href="#ub6la"/></g></g></svg>