<svg xmlns="http://www.w3.org/2000/svg" xmlns:xlink="http://www.w3.org/1999/xlink" width="30" height="23" viewBox="0 0 30 23"><defs><path id="v9g5a" d="M413 3684.39a16.3 16.3 0 0 1-1.96 7.61h-26.08s-1.96-3-1.96-7.61c0-8.5 6.71-15.39 15-15.39 8.28 0 15 6.89 15 15.39zm-1.74-.05c0-7.45-5.91-13.49-13.21-13.49-7.3 0-13.21 6.04-13.21 13.49a13.7 13.7 0 0 0 1.27 5.78h23.83s1.32-2.41 1.32-5.78zm-3.5 3.2h1.39v1.16h-7.98v-1.17h1.6l-1.6-4.53-3.12 5.7-3.25-5.7-1.6 4.53h1.6v1.17h-8.04v-1.17h1.47l5.67-14.51 4.15 8.03 4-7.96h.19z"/></defs><g><g transform="translate(-383 -3669)"><use fill="#99af22" xlink:href="#v9g5a"/></g></g></svg>