<svg xmlns="http://www.w3.org/2000/svg" xmlns:xlink="http://www.w3.org/1999/xlink" width="21" height="25" viewBox="0 0 21 25"><defs><path id="lhr3a" d="M153.3 633.82c-.16 0-.27 0-.36-.03v-1.33c.08-.02.23-.04.44-.04.52 0 .82.25.82.66 0 .47-.34.74-.9.74zm5.61.05c0 1.07-.62 1.58-1.57 1.58-.13 0-.28 0-.37-.02v-2.95c.1-.02.24-.04.48-.04.9 0 1.47.5 1.46 1.43zM170 623.3v16.04a2.7 2.7 0 0 1-2.74 2.66h-14.14a2.7 2.7 0 0 1-2.75-2.66v-1.2h-.26c-.61 0-1.11-.47-1.11-1.07v-6.5c0-.59.5-1.07 1.1-1.07h.27v-9.84a2.7 2.7 0 0 1 2.75-2.66h10.36zm-18.1 12.9h1.04v-1.62c.1.02.23.02.36.02a2.2 2.2 0 0 0 1.52-.47c.27-.26.42-.63.42-1.07 0-.44-.2-.82-.5-1.05-.3-.24-.77-.36-1.42-.36-.64 0-1.1.04-1.42.1zm16.42 3.14l-.04-15.4-3.53.01c-1.05 0-1.9-.82-1.9-1.84v-3.49l-9.73.01c-.59 0-1.06.46-1.06 1.03v9.84h13.17c.61 0 1.11.48 1.11 1.07v6.5c0 .6-.5 1.08-1.1 1.08h-13.18v1.19c0 .57.47 1.03 1.06 1.03h14.14c.58 0 1.06-.46 1.06-1.03zm-11.21-3.1c.91 0 1.66-.19 2.15-.58.45-.37.77-.96.77-1.83 0-.8-.3-1.35-.79-1.7-.45-.32-1.02-.48-1.9-.48-.53 0-1.04.04-1.42.1v4.43c.26.03.64.06 1.19.06zm4.67-2.69v-1.03h1.79v-.83h-2.85v4.5h1.06v-1.8h1.67v-.84z"/></defs><g><g transform="translate(-149 -617)"><use xlink:href="#lhr3a"/></g></g></svg>