<svg xmlns="http://www.w3.org/2000/svg" xmlns:xlink="http://www.w3.org/1999/xlink" width="86" height="88" viewBox="0 0 86 88"><defs><path id="7l8za" d="M158.94 3010.38H97.19l56.07-15.24zm12.06 26.25v24.38h-23.43c-3.12 0-5.9-2.11-5.9-5.2v-13.13c0-3.1 2.78-6.05 5.9-6.05zm-14.44 12.62c0-2.33-1.9-4.22-4.25-4.22a4.24 4.24 0 0 0-4.26 4.22c0 2.33 1.9 4.22 4.26 4.22a4.24 4.24 0 0 0 4.25-4.22zm5.92 15.04h4.85v13.08c0 3.1-2.56 5.63-5.68 5.63H90.68a5.68 5.68 0 0 1-5.59-4.65h.74c.52 0 .95-.42.95-.94a.94.94 0 0 0-.95-.93H85v-55.32h1.78c.52 0 .94-.42.94-.94a.94.94 0 0 0-.94-.94h-1.7a5.68 5.68 0 0 1 5.6-4.72h70.97a5.67 5.67 0 0 1 5.68 5.62v12.23h-4.85v-.94a.94.94 0 0 0-.94-.93.94.94 0 0 0-.95.93v.94h-13.13c-5.22 0-9.58 4.64-9.58 9.8v13.13c0 5.17 4.36 8.95 9.58 8.95h13.13v1.87c0 .52.42.94.95.94.52 0 .94-.42.94-.94zm-4.73-44.07c0 .52.43.94.95.94h1.9v1.88c0 .51.41.93.94.93.52 0 .94-.42.94-.93v-3.75h-3.78a.94.94 0 0 0-.95.93zm-12.3 0c0 .52.42.94.95.94h6.62c.52 0 .95-.42.95-.94a.94.94 0 0 0-.95-.93h-6.62a.94.94 0 0 0-.95.93zm-13.25 0c0 .52.42.94.95.94h6.62c.52 0 .95-.42.95-.94a.94.94 0 0 0-.95-.93h-6.62a.94.94 0 0 0-.95.93zm-32.17 57.2a.94.94 0 0 0-.95-.94h-6.62a.94.94 0 0 0-.95.93c0 .52.42.94.95.94h6.62c.52 0 .95-.42.95-.94zm.94-57.2a.94.94 0 0 0-.94-.93H93.4a.94.94 0 0 0-.94.93c0 .52.42.94.94.94h6.63c.52 0 .94-.42.94-.94zm12.3 57.2a.94.94 0 0 0-.94-.94h-6.63a.94.94 0 0 0-.94.93c0 .52.42.94.94.94h6.63c.52 0 .94-.42.94-.94zm.95-57.2a.94.94 0 0 0-.95-.93h-6.62a.94.94 0 0 0-.95.93c0 .52.43.94.95.94h6.62c.53 0 .95-.42.95-.94zm12.3 57.2a.94.94 0 0 0-.94-.94h-6.63a.94.94 0 0 0-.94.93c0 .52.42.94.94.94h6.63c.52 0 .94-.42.94-.94zm.95-57.2a.94.94 0 0 0-.95-.93h-6.62a.94.94 0 0 0-.95.93c0 .52.43.94.95.94h6.62c.53 0 .95-.42.95-.94zm12.3 57.2a.94.94 0 0 0-.95-.94h-6.62a.94.94 0 0 0-.95.93c0 .52.43.94.95.94h6.62c.53 0 .95-.42.95-.94zm13.25 0a.94.94 0 0 0-.95-.94h-6.62a.94.94 0 0 0-.95.93c0 .52.43.94.95.94h6.62c.53 0 .95-.42.95-.94zm9.46.93v-4.69a.94.94 0 0 0-.94-.94.94.94 0 0 0-.95.94v2.82h-1.9a.94.94 0 0 0-.94.93c0 .52.43.94.95.94z"/></defs><g><g transform="translate(-85 -2995)"><use fill="#99af22" xlink:href="#7l8za"/></g></g></svg>