<svg xmlns="http://www.w3.org/2000/svg" xmlns:xlink="http://www.w3.org/1999/xlink" width="44" height="44" viewBox="0 0 44 44"><defs><path id="ssvua" d="M392 2664c-12.13 0-22-9.86-22-22 0-12.13 9.87-22 22-22s22 9.87 22 22c0 12.14-9.87 22-22 22zm0-42.51A20.54 20.54 0 0 0 371.5 2642c0 11.31 9.2 20.51 20.51 20.51 11.31 0 20.51-9.2 20.51-20.5 0-11.32-9.2-20.52-20.5-20.52zm-2.76 28.24a.75.75 0 0 1-.53-1.27l6.76-6.77-6.76-6.77a.75.75 0 0 1 1.06-1.06l7.28 7.3c.3.29.3.76 0 1.05l-7.28 7.3a.74.74 0 0 1-.53.22z"/></defs><g><g transform="translate(-370 -2620)"><use fill="#4b4b4b" xlink:href="#ssvua"/></g></g></svg>