<svg xmlns="http://www.w3.org/2000/svg" xmlns:xlink="http://www.w3.org/1999/xlink" width="22" height="22" viewBox="0 0 22 22"><defs><path id="dkoja" d="M1300 2543a10.95 10.95 0 0 1-11 11 10.96 10.96 0 0 1-11-11 10.95 10.95 0 0 1 11-11 10.95 10.95 0 0 1 11 11zm-3.6-2.32a.9.9 0 0 0-.27-.66l-1.3-1.29a.88.88 0 0 0-.64-.27c-.25 0-.47.09-.65.27l-5.84 5.83-3.24-3.24a.88.88 0 0 0-.65-.27.88.88 0 0 0-.64.27l-1.3 1.3a.9.9 0 0 0-.26.65c0 .26.08.47.26.65l5.18 5.18c.18.18.4.27.65.27a.9.9 0 0 0 .66-.27l7.77-7.78a.87.87 0 0 0 .26-.64z"/></defs><g><g transform="translate(-1278 -2532)"><use fill="#99af22" xlink:href="#dkoja"/></g></g></svg>