<svg xmlns="http://www.w3.org/2000/svg" xmlns:xlink="http://www.w3.org/1999/xlink" width="78" height="88" viewBox="0 0 78 88"><defs><path id="n4nza" d="M989.52 3079.54S974.24 3083 956 3083c-18.24 0-33.52-3.46-33.52-3.46-5-.99-4.74-3.6-4.74-3.6.83-15.7 15.05-22.19 15.05-22.19 3.4-1.57 9.56-4.66 13.6-6.7a25.37 25.37 0 0 1-4.7-7.98 24.35 24.35 0 0 0 8.2 3.56 2.4 2.4 0 0 0 2.2 1.44h6.3a2.4 2.4 0 0 0 2.4-2.39 2.4 2.4 0 0 0-2.4-2.38h-6.3c-.65 0-1.24.26-1.67.67-3.45-.85-7.65-2.58-10.37-6.13-.35-1.43-.53-2.49-.6-2.87-1.08-5.9-.54-13.19-.54-13.19 1-14.27 15.6-14.41 16.97-14.4h.26c1.5-.01 15.95.21 16.94 14.4 0 0 .55 7.3-.53 13.2-.24 1.3-1.77 10.45-6.95 16.07 4.04 2.04 10.2 5.13 13.6 6.7 0 0 14.23 6.5 15.06 22.2 0 0 .25 2.6-4.74 3.6zm-62.26-50.19v-6.44c0-2.98 1.96-5.5 4.68-6.38v-.9c0-5.65 1.82-10.3 5.4-13.78 7.01-6.82 18.22-6.68 18.7-6.68.39 0 11.59-.17 18.6 6.64 3.6 3.49 5.42 8.14 5.42 13.83v.9a6.71 6.71 0 0 1 4.68 6.37v6.45c0 3.7-3.03 6.7-6.77 6.7h-1.52v-17.58-2.84c0-4.69-1.46-8.48-4.34-11.27-5.94-5.77-15.95-5.62-16.07-5.61-.17-.03-10.27-.1-16.18 5.66-2.85 2.79-4.3 6.56-4.3 11.22v2.6l-.02.14v17.68h-1.52c-3.73 0-6.76-3-6.76-6.7z"/></defs><g><g transform="translate(-917 -2995)"><use fill="#2daae1" xlink:href="#n4nza"/></g></g></svg>