<svg xmlns="http://www.w3.org/2000/svg" xmlns:xlink="http://www.w3.org/1999/xlink" width="29" height="29" viewBox="0 0 29 29"><defs><path id="u5hca" d="M1291.6 2614.5c0 2.8-2.3 5.1-5.1 5.1s-5.1-2.3-5.1-5.1 2.3-5.1 5.1-5.1 5.1 2.3 5.1 5.1zm8.93-1.28v2.56h-2.68a11.39 11.39 0 0 1-10.07 10.07v2.67h-2.55v-2.67a11.39 11.39 0 0 1-10.08-10.07h-2.68v-2.56h2.68a11.16 11.16 0 0 1 10.08-10.07v-2.68h2.55v2.68c5.22.51 9.43 4.72 10.07 10.07zm-5.1 1.28a8.87 8.87 0 0 0-8.93-8.92 8.87 8.87 0 0 0-8.93 8.92 8.87 8.87 0 0 0 8.93 8.93 8.87 8.87 0 0 0 8.93-8.93z"/></defs><g><g transform="translate(-1272 -2600)"><use fill="#dec12d" xlink:href="#u5hca"/></g></g></svg>